<mxfile host="Electron" modified="2023-10-04T02:55:47.516Z" agent="Mozilla/5.0 (Windows NT 10.0; Win64; x64) AppleWebKit/537.36 (KHTML, like Gecko) draw.io/21.5.1 Chrome/112.0.5615.204 Electron/24.6.0 Safari/537.36" etag="a1WNZId8Re0f6_4SG7tR" version="21.5.1" type="device" pages="17">
  <diagram name="第 1 页" id="koMWQhoyJcR04KUL1mDg">
    <mxGraphModel dx="1036" dy="606" grid="1" gridSize="10" guides="1" tooltips="1" connect="1" arrows="1" fold="1" page="1" pageScale="1" pageWidth="827" pageHeight="1169" math="0" shadow="0">
      <root>
        <mxCell id="0" />
        <mxCell id="1" parent="0" />
        <mxCell id="SVRHKct73V8F1SllChDO-1" value="" style="rounded=0;whiteSpace=wrap;html=1;fillColor=#ffe6cc;strokeColor=#d79b00;" parent="1" vertex="1">
          <mxGeometry x="150" y="230" width="580" height="60" as="geometry" />
        </mxCell>
        <mxCell id="SVRHKct73V8F1SllChDO-6" value="" style="edgeStyle=orthogonalEdgeStyle;rounded=0;orthogonalLoop=1;jettySize=auto;html=1;" parent="1" source="SVRHKct73V8F1SllChDO-3" edge="1">
          <mxGeometry relative="1" as="geometry">
            <mxPoint x="580" y="230" as="targetPoint" />
          </mxGeometry>
        </mxCell>
        <mxCell id="SVRHKct73V8F1SllChDO-3" value="top" style="text;html=1;strokeColor=none;fillColor=none;align=center;verticalAlign=middle;whiteSpace=wrap;rounded=0;" parent="1" vertex="1">
          <mxGeometry x="550" y="150" width="60" height="30" as="geometry" />
        </mxCell>
        <mxCell id="SVRHKct73V8F1SllChDO-5" value="" style="edgeStyle=orthogonalEdgeStyle;rounded=0;orthogonalLoop=1;jettySize=auto;html=1;" parent="1" source="SVRHKct73V8F1SllChDO-4" edge="1">
          <mxGeometry relative="1" as="geometry">
            <mxPoint x="150" y="230" as="targetPoint" />
          </mxGeometry>
        </mxCell>
        <mxCell id="SVRHKct73V8F1SllChDO-4" value="bottom" style="text;html=1;strokeColor=none;fillColor=none;align=center;verticalAlign=middle;whiteSpace=wrap;rounded=0;" parent="1" vertex="1">
          <mxGeometry x="120" y="150" width="60" height="30" as="geometry" />
        </mxCell>
        <mxCell id="SVRHKct73V8F1SllChDO-9" value="A" style="rounded=1;whiteSpace=wrap;html=1;" parent="1" vertex="1">
          <mxGeometry x="150" y="235" width="50" height="50" as="geometry" />
        </mxCell>
        <mxCell id="SVRHKct73V8F1SllChDO-10" value="Region" style="text;html=1;strokeColor=none;fillColor=none;align=center;verticalAlign=middle;whiteSpace=wrap;rounded=0;" parent="1" vertex="1">
          <mxGeometry x="70" y="245" width="60" height="30" as="geometry" />
        </mxCell>
        <mxCell id="SVRHKct73V8F1SllChDO-11" value="B" style="rounded=1;whiteSpace=wrap;html=1;" parent="1" vertex="1">
          <mxGeometry x="210" y="235" width="30" height="50" as="geometry" />
        </mxCell>
        <mxCell id="SVRHKct73V8F1SllChDO-12" value="C" style="rounded=1;whiteSpace=wrap;html=1;" parent="1" vertex="1">
          <mxGeometry x="250" y="235" width="30" height="50" as="geometry" />
        </mxCell>
        <mxCell id="SVRHKct73V8F1SllChDO-13" value="D" style="rounded=1;whiteSpace=wrap;html=1;" parent="1" vertex="1">
          <mxGeometry x="290" y="235" width="70" height="50" as="geometry" />
        </mxCell>
        <mxCell id="SVRHKct73V8F1SllChDO-14" value="E" style="rounded=1;whiteSpace=wrap;html=1;" parent="1" vertex="1">
          <mxGeometry x="370" y="235" width="30" height="50" as="geometry" />
        </mxCell>
        <mxCell id="SVRHKct73V8F1SllChDO-15" value="F" style="rounded=1;whiteSpace=wrap;html=1;" parent="1" vertex="1">
          <mxGeometry x="410" y="235" width="30" height="50" as="geometry" />
        </mxCell>
        <mxCell id="SVRHKct73V8F1SllChDO-16" value="G" style="rounded=1;whiteSpace=wrap;html=1;" parent="1" vertex="1">
          <mxGeometry x="450" y="235" width="30" height="50" as="geometry" />
        </mxCell>
        <mxCell id="SVRHKct73V8F1SllChDO-17" value="H" style="rounded=1;whiteSpace=wrap;html=1;" parent="1" vertex="1">
          <mxGeometry x="490" y="235" width="50" height="50" as="geometry" />
        </mxCell>
        <mxCell id="SVRHKct73V8F1SllChDO-18" value="I" style="rounded=1;whiteSpace=wrap;html=1;" parent="1" vertex="1">
          <mxGeometry x="550" y="235" width="30" height="50" as="geometry" />
        </mxCell>
        <mxCell id="SVRHKct73V8F1SllChDO-19" value="标记位图" style="text;html=1;strokeColor=none;fillColor=none;align=center;verticalAlign=middle;whiteSpace=wrap;rounded=0;" parent="1" vertex="1">
          <mxGeometry x="70" y="442.5" width="60" height="30" as="geometry" />
        </mxCell>
        <mxCell id="SVRHKct73V8F1SllChDO-20" value="" style="rounded=0;whiteSpace=wrap;html=1;" parent="1" vertex="1">
          <mxGeometry x="150" y="440" width="180" height="35" as="geometry" />
        </mxCell>
        <mxCell id="SVRHKct73V8F1SllChDO-21" value="0" style="rounded=0;whiteSpace=wrap;html=1;" parent="1" vertex="1">
          <mxGeometry x="150" y="440" width="20" height="35" as="geometry" />
        </mxCell>
        <mxCell id="SVRHKct73V8F1SllChDO-22" value="0" style="rounded=0;whiteSpace=wrap;html=1;" parent="1" vertex="1">
          <mxGeometry x="170" y="440" width="20" height="35" as="geometry" />
        </mxCell>
        <mxCell id="SVRHKct73V8F1SllChDO-23" value="0" style="rounded=0;whiteSpace=wrap;html=1;" parent="1" vertex="1">
          <mxGeometry x="190" y="440" width="20" height="35" as="geometry" />
        </mxCell>
        <mxCell id="SVRHKct73V8F1SllChDO-24" value="0" style="rounded=0;whiteSpace=wrap;html=1;" parent="1" vertex="1">
          <mxGeometry x="210" y="440" width="20" height="35" as="geometry" />
        </mxCell>
        <mxCell id="SVRHKct73V8F1SllChDO-25" value="0" style="rounded=0;whiteSpace=wrap;html=1;" parent="1" vertex="1">
          <mxGeometry x="230" y="440" width="20" height="35" as="geometry" />
        </mxCell>
        <mxCell id="SVRHKct73V8F1SllChDO-26" value="0" style="rounded=0;whiteSpace=wrap;html=1;" parent="1" vertex="1">
          <mxGeometry x="250" y="440" width="20" height="35" as="geometry" />
        </mxCell>
        <mxCell id="SVRHKct73V8F1SllChDO-27" value="0" style="rounded=0;whiteSpace=wrap;html=1;" parent="1" vertex="1">
          <mxGeometry x="270" y="440" width="20" height="35" as="geometry" />
        </mxCell>
        <mxCell id="SVRHKct73V8F1SllChDO-28" value="0" style="rounded=0;whiteSpace=wrap;html=1;" parent="1" vertex="1">
          <mxGeometry x="290" y="440" width="20" height="35" as="geometry" />
        </mxCell>
        <mxCell id="SVRHKct73V8F1SllChDO-29" value="0" style="rounded=0;whiteSpace=wrap;html=1;" parent="1" vertex="1">
          <mxGeometry x="310" y="440" width="20" height="35" as="geometry" />
        </mxCell>
        <mxCell id="SVRHKct73V8F1SllChDO-30" value="nextTAMS" style="text;html=1;strokeColor=none;fillColor=none;align=center;verticalAlign=middle;whiteSpace=wrap;rounded=0;" parent="1" vertex="1">
          <mxGeometry x="550" y="330" width="60" height="30" as="geometry" />
        </mxCell>
        <mxCell id="SVRHKct73V8F1SllChDO-32" value="" style="endArrow=classic;html=1;rounded=0;" parent="1" edge="1">
          <mxGeometry width="50" height="50" relative="1" as="geometry">
            <mxPoint x="580" y="330" as="sourcePoint" />
            <mxPoint x="579.66" y="290" as="targetPoint" />
          </mxGeometry>
        </mxCell>
        <mxCell id="B8gGHAvIbb66kSB2rJei-1" value="prevTAMS" style="text;html=1;strokeColor=none;fillColor=none;align=center;verticalAlign=middle;whiteSpace=wrap;rounded=0;" parent="1" vertex="1">
          <mxGeometry x="120" y="330" width="60" height="30" as="geometry" />
        </mxCell>
        <mxCell id="B8gGHAvIbb66kSB2rJei-2" value="" style="endArrow=classic;html=1;rounded=0;" parent="1" edge="1">
          <mxGeometry width="50" height="50" relative="1" as="geometry">
            <mxPoint x="150" y="330" as="sourcePoint" />
            <mxPoint x="149.65999999999997" y="290" as="targetPoint" />
          </mxGeometry>
        </mxCell>
      </root>
    </mxGraphModel>
  </diagram>
  <diagram id="1xzPIUTH8r7b18nh56v0" name="第 2 页">
    <mxGraphModel dx="810" dy="469" grid="1" gridSize="10" guides="1" tooltips="1" connect="1" arrows="1" fold="1" page="1" pageScale="1" pageWidth="827" pageHeight="1169" math="0" shadow="0">
      <root>
        <mxCell id="0" />
        <mxCell id="1" parent="0" />
        <mxCell id="B21Ra4LimXiiHe7JULUf-1" value="" style="rounded=0;whiteSpace=wrap;html=1;fillColor=#ffe6cc;strokeColor=#d79b00;" vertex="1" parent="1">
          <mxGeometry x="150" y="230" width="580" height="60" as="geometry" />
        </mxCell>
        <mxCell id="B21Ra4LimXiiHe7JULUf-2" value="" style="edgeStyle=orthogonalEdgeStyle;rounded=0;orthogonalLoop=1;jettySize=auto;html=1;" edge="1" parent="1" source="B21Ra4LimXiiHe7JULUf-3">
          <mxGeometry relative="1" as="geometry">
            <mxPoint x="580" y="230" as="targetPoint" />
          </mxGeometry>
        </mxCell>
        <mxCell id="B21Ra4LimXiiHe7JULUf-3" value="top" style="text;html=1;strokeColor=none;fillColor=none;align=center;verticalAlign=middle;whiteSpace=wrap;rounded=0;" vertex="1" parent="1">
          <mxGeometry x="550" y="150" width="60" height="30" as="geometry" />
        </mxCell>
        <mxCell id="B21Ra4LimXiiHe7JULUf-4" value="" style="edgeStyle=orthogonalEdgeStyle;rounded=0;orthogonalLoop=1;jettySize=auto;html=1;" edge="1" parent="1" source="B21Ra4LimXiiHe7JULUf-5">
          <mxGeometry relative="1" as="geometry">
            <mxPoint x="150" y="230" as="targetPoint" />
          </mxGeometry>
        </mxCell>
        <mxCell id="B21Ra4LimXiiHe7JULUf-5" value="bottom" style="text;html=1;strokeColor=none;fillColor=none;align=center;verticalAlign=middle;whiteSpace=wrap;rounded=0;" vertex="1" parent="1">
          <mxGeometry x="120" y="150" width="60" height="30" as="geometry" />
        </mxCell>
        <mxCell id="B21Ra4LimXiiHe7JULUf-6" value="A" style="rounded=1;whiteSpace=wrap;html=1;" vertex="1" parent="1">
          <mxGeometry x="150" y="235" width="50" height="50" as="geometry" />
        </mxCell>
        <mxCell id="B21Ra4LimXiiHe7JULUf-7" value="Region" style="text;html=1;strokeColor=none;fillColor=none;align=center;verticalAlign=middle;whiteSpace=wrap;rounded=0;" vertex="1" parent="1">
          <mxGeometry x="70" y="245" width="60" height="30" as="geometry" />
        </mxCell>
        <mxCell id="B21Ra4LimXiiHe7JULUf-8" value="B" style="rounded=1;whiteSpace=wrap;html=1;" vertex="1" parent="1">
          <mxGeometry x="210" y="235" width="30" height="50" as="geometry" />
        </mxCell>
        <mxCell id="B21Ra4LimXiiHe7JULUf-29" style="edgeStyle=orthogonalEdgeStyle;rounded=0;orthogonalLoop=1;jettySize=auto;html=1;exitX=0.5;exitY=1;exitDx=0;exitDy=0;entryX=0.5;entryY=1;entryDx=0;entryDy=0;strokeColor=#FF0000;" edge="1" parent="1" source="B21Ra4LimXiiHe7JULUf-9" target="B21Ra4LimXiiHe7JULUf-6">
          <mxGeometry relative="1" as="geometry" />
        </mxCell>
        <mxCell id="B21Ra4LimXiiHe7JULUf-30" style="edgeStyle=orthogonalEdgeStyle;rounded=0;orthogonalLoop=1;jettySize=auto;html=1;entryX=0.5;entryY=1;entryDx=0;entryDy=0;strokeColor=#FF0000;" edge="1" parent="1" source="B21Ra4LimXiiHe7JULUf-9" target="B21Ra4LimXiiHe7JULUf-11">
          <mxGeometry relative="1" as="geometry">
            <Array as="points">
              <mxPoint x="265" y="305" />
              <mxPoint x="385" y="305" />
            </Array>
          </mxGeometry>
        </mxCell>
        <mxCell id="B21Ra4LimXiiHe7JULUf-9" value="C" style="rounded=1;whiteSpace=wrap;html=1;fillColor=#ccc;" vertex="1" parent="1">
          <mxGeometry x="250" y="235" width="30" height="50" as="geometry" />
        </mxCell>
        <mxCell id="B21Ra4LimXiiHe7JULUf-10" value="D" style="rounded=1;whiteSpace=wrap;html=1;" vertex="1" parent="1">
          <mxGeometry x="290" y="235" width="70" height="50" as="geometry" />
        </mxCell>
        <mxCell id="B21Ra4LimXiiHe7JULUf-11" value="E" style="rounded=1;whiteSpace=wrap;html=1;" vertex="1" parent="1">
          <mxGeometry x="370" y="235" width="30" height="50" as="geometry" />
        </mxCell>
        <mxCell id="B21Ra4LimXiiHe7JULUf-12" value="F" style="rounded=1;whiteSpace=wrap;html=1;" vertex="1" parent="1">
          <mxGeometry x="410" y="235" width="30" height="50" as="geometry" />
        </mxCell>
        <mxCell id="B21Ra4LimXiiHe7JULUf-13" value="G" style="rounded=1;whiteSpace=wrap;html=1;" vertex="1" parent="1">
          <mxGeometry x="450" y="235" width="30" height="50" as="geometry" />
        </mxCell>
        <mxCell id="B21Ra4LimXiiHe7JULUf-14" value="H" style="rounded=1;whiteSpace=wrap;html=1;" vertex="1" parent="1">
          <mxGeometry x="490" y="235" width="50" height="50" as="geometry" />
        </mxCell>
        <mxCell id="B21Ra4LimXiiHe7JULUf-15" value="I" style="rounded=1;whiteSpace=wrap;html=1;" vertex="1" parent="1">
          <mxGeometry x="550" y="235" width="30" height="50" as="geometry" />
        </mxCell>
        <mxCell id="B21Ra4LimXiiHe7JULUf-16" value="标记位图" style="text;html=1;strokeColor=none;fillColor=none;align=center;verticalAlign=middle;whiteSpace=wrap;rounded=0;" vertex="1" parent="1">
          <mxGeometry x="70" y="422.5" width="60" height="30" as="geometry" />
        </mxCell>
        <mxCell id="B21Ra4LimXiiHe7JULUf-17" value="" style="rounded=0;whiteSpace=wrap;html=1;" vertex="1" parent="1">
          <mxGeometry x="150" y="420" width="180" height="35" as="geometry" />
        </mxCell>
        <mxCell id="B21Ra4LimXiiHe7JULUf-18" value="0" style="rounded=0;whiteSpace=wrap;html=1;" vertex="1" parent="1">
          <mxGeometry x="150" y="420" width="20" height="35" as="geometry" />
        </mxCell>
        <mxCell id="B21Ra4LimXiiHe7JULUf-19" value="0" style="rounded=0;whiteSpace=wrap;html=1;" vertex="1" parent="1">
          <mxGeometry x="170" y="420" width="20" height="35" as="geometry" />
        </mxCell>
        <mxCell id="B21Ra4LimXiiHe7JULUf-20" value="1" style="rounded=0;whiteSpace=wrap;html=1;fillColor=#FFFFFF;fontColor=#000000;" vertex="1" parent="1">
          <mxGeometry x="190" y="420" width="20" height="35" as="geometry" />
        </mxCell>
        <mxCell id="B21Ra4LimXiiHe7JULUf-21" value="0" style="rounded=0;whiteSpace=wrap;html=1;" vertex="1" parent="1">
          <mxGeometry x="210" y="420" width="20" height="35" as="geometry" />
        </mxCell>
        <mxCell id="B21Ra4LimXiiHe7JULUf-22" value="0" style="rounded=0;whiteSpace=wrap;html=1;" vertex="1" parent="1">
          <mxGeometry x="230" y="420" width="20" height="35" as="geometry" />
        </mxCell>
        <mxCell id="B21Ra4LimXiiHe7JULUf-23" value="0" style="rounded=0;whiteSpace=wrap;html=1;" vertex="1" parent="1">
          <mxGeometry x="250" y="420" width="20" height="35" as="geometry" />
        </mxCell>
        <mxCell id="B21Ra4LimXiiHe7JULUf-24" value="0" style="rounded=0;whiteSpace=wrap;html=1;" vertex="1" parent="1">
          <mxGeometry x="270" y="420" width="20" height="35" as="geometry" />
        </mxCell>
        <mxCell id="B21Ra4LimXiiHe7JULUf-25" value="0" style="rounded=0;whiteSpace=wrap;html=1;" vertex="1" parent="1">
          <mxGeometry x="290" y="420" width="20" height="35" as="geometry" />
        </mxCell>
        <mxCell id="B21Ra4LimXiiHe7JULUf-26" value="0" style="rounded=0;whiteSpace=wrap;html=1;" vertex="1" parent="1">
          <mxGeometry x="310" y="420" width="20" height="35" as="geometry" />
        </mxCell>
        <mxCell id="B21Ra4LimXiiHe7JULUf-27" value="nextTAMS" style="text;html=1;strokeColor=none;fillColor=none;align=center;verticalAlign=middle;whiteSpace=wrap;rounded=0;" vertex="1" parent="1">
          <mxGeometry x="550" y="330" width="60" height="30" as="geometry" />
        </mxCell>
        <mxCell id="B21Ra4LimXiiHe7JULUf-28" value="" style="endArrow=classic;html=1;rounded=0;" edge="1" parent="1">
          <mxGeometry width="50" height="50" relative="1" as="geometry">
            <mxPoint x="580" y="330" as="sourcePoint" />
            <mxPoint x="579.66" y="290" as="targetPoint" />
          </mxGeometry>
        </mxCell>
        <mxCell id="7bxuMWYn87q4isu9ZQl7-3" value="prevTAMS" style="text;html=1;strokeColor=none;fillColor=none;align=center;verticalAlign=middle;whiteSpace=wrap;rounded=0;" vertex="1" parent="1">
          <mxGeometry x="120" y="330" width="60" height="30" as="geometry" />
        </mxCell>
        <mxCell id="7bxuMWYn87q4isu9ZQl7-4" value="" style="endArrow=classic;html=1;rounded=0;" edge="1" parent="1">
          <mxGeometry width="50" height="50" relative="1" as="geometry">
            <mxPoint x="150" y="330" as="sourcePoint" />
            <mxPoint x="149.65999999999997" y="290" as="targetPoint" />
          </mxGeometry>
        </mxCell>
      </root>
    </mxGraphModel>
  </diagram>
  <diagram id="U_nQCmSfbtbpKJbJl46y" name="第 3 页">
    <mxGraphModel dx="1182" dy="683" grid="1" gridSize="10" guides="1" tooltips="1" connect="1" arrows="1" fold="1" page="1" pageScale="1" pageWidth="827" pageHeight="1169" math="0" shadow="0">
      <root>
        <mxCell id="0" />
        <mxCell id="1" parent="0" />
        <mxCell id="sDgrPTUQ4HozFk8zjUck-1" value="" style="rounded=0;whiteSpace=wrap;html=1;fillColor=#ffe6cc;strokeColor=#d79b00;" vertex="1" parent="1">
          <mxGeometry x="150" y="230" width="580" height="60" as="geometry" />
        </mxCell>
        <mxCell id="sDgrPTUQ4HozFk8zjUck-2" value="" style="edgeStyle=orthogonalEdgeStyle;rounded=0;orthogonalLoop=1;jettySize=auto;html=1;" edge="1" parent="1" source="sDgrPTUQ4HozFk8zjUck-3">
          <mxGeometry relative="1" as="geometry">
            <mxPoint x="670" y="230" as="targetPoint" />
          </mxGeometry>
        </mxCell>
        <mxCell id="sDgrPTUQ4HozFk8zjUck-3" value="top" style="text;html=1;strokeColor=none;fillColor=none;align=center;verticalAlign=middle;whiteSpace=wrap;rounded=0;" vertex="1" parent="1">
          <mxGeometry x="640" y="150" width="60" height="30" as="geometry" />
        </mxCell>
        <mxCell id="sDgrPTUQ4HozFk8zjUck-4" value="" style="edgeStyle=orthogonalEdgeStyle;rounded=0;orthogonalLoop=1;jettySize=auto;html=1;" edge="1" parent="1" source="sDgrPTUQ4HozFk8zjUck-5">
          <mxGeometry relative="1" as="geometry">
            <mxPoint x="150" y="230" as="targetPoint" />
          </mxGeometry>
        </mxCell>
        <mxCell id="sDgrPTUQ4HozFk8zjUck-5" value="bottom" style="text;html=1;strokeColor=none;fillColor=none;align=center;verticalAlign=middle;whiteSpace=wrap;rounded=0;" vertex="1" parent="1">
          <mxGeometry x="120" y="150" width="60" height="30" as="geometry" />
        </mxCell>
        <mxCell id="sDgrPTUQ4HozFk8zjUck-6" value="A" style="rounded=1;whiteSpace=wrap;html=1;fillColor=#000000;fontColor=#FFFFFF;" vertex="1" parent="1">
          <mxGeometry x="150" y="235" width="50" height="50" as="geometry" />
        </mxCell>
        <mxCell id="sDgrPTUQ4HozFk8zjUck-7" value="Region" style="text;html=1;strokeColor=none;fillColor=none;align=center;verticalAlign=middle;whiteSpace=wrap;rounded=0;" vertex="1" parent="1">
          <mxGeometry x="70" y="245" width="60" height="30" as="geometry" />
        </mxCell>
        <mxCell id="sDgrPTUQ4HozFk8zjUck-8" value="B" style="rounded=1;whiteSpace=wrap;html=1;" vertex="1" parent="1">
          <mxGeometry x="210" y="235" width="30" height="50" as="geometry" />
        </mxCell>
        <mxCell id="sDgrPTUQ4HozFk8zjUck-9" style="edgeStyle=orthogonalEdgeStyle;rounded=0;orthogonalLoop=1;jettySize=auto;html=1;exitX=0.5;exitY=1;exitDx=0;exitDy=0;entryX=0.5;entryY=1;entryDx=0;entryDy=0;strokeColor=#FF0000;" edge="1" parent="1" source="sDgrPTUQ4HozFk8zjUck-11" target="sDgrPTUQ4HozFk8zjUck-6">
          <mxGeometry relative="1" as="geometry" />
        </mxCell>
        <mxCell id="sDgrPTUQ4HozFk8zjUck-10" style="edgeStyle=orthogonalEdgeStyle;rounded=0;orthogonalLoop=1;jettySize=auto;html=1;entryX=0.5;entryY=1;entryDx=0;entryDy=0;strokeColor=#FF0000;" edge="1" parent="1" source="sDgrPTUQ4HozFk8zjUck-11" target="sDgrPTUQ4HozFk8zjUck-13">
          <mxGeometry relative="1" as="geometry">
            <Array as="points">
              <mxPoint x="265" y="305" />
              <mxPoint x="385" y="305" />
            </Array>
          </mxGeometry>
        </mxCell>
        <mxCell id="sDgrPTUQ4HozFk8zjUck-11" value="C" style="rounded=1;whiteSpace=wrap;html=1;fillColor=#000000;fontColor=#FFFFFF;" vertex="1" parent="1">
          <mxGeometry x="250" y="235" width="30" height="50" as="geometry" />
        </mxCell>
        <mxCell id="sDgrPTUQ4HozFk8zjUck-12" value="D" style="rounded=1;whiteSpace=wrap;html=1;" vertex="1" parent="1">
          <mxGeometry x="290" y="235" width="70" height="50" as="geometry" />
        </mxCell>
        <mxCell id="sDgrPTUQ4HozFk8zjUck-13" value="E" style="rounded=1;whiteSpace=wrap;html=1;fillColor=#000000;fontColor=#FFFFFF;" vertex="1" parent="1">
          <mxGeometry x="370" y="235" width="30" height="50" as="geometry" />
        </mxCell>
        <mxCell id="sDgrPTUQ4HozFk8zjUck-14" value="F" style="rounded=1;whiteSpace=wrap;html=1;" vertex="1" parent="1">
          <mxGeometry x="410" y="235" width="30" height="50" as="geometry" />
        </mxCell>
        <mxCell id="sDgrPTUQ4HozFk8zjUck-15" value="G" style="rounded=1;whiteSpace=wrap;html=1;" vertex="1" parent="1">
          <mxGeometry x="450" y="235" width="30" height="50" as="geometry" />
        </mxCell>
        <mxCell id="sDgrPTUQ4HozFk8zjUck-16" value="H" style="rounded=1;whiteSpace=wrap;html=1;" vertex="1" parent="1">
          <mxGeometry x="490" y="235" width="50" height="50" as="geometry" />
        </mxCell>
        <mxCell id="sDgrPTUQ4HozFk8zjUck-17" value="I" style="rounded=1;whiteSpace=wrap;html=1;" vertex="1" parent="1">
          <mxGeometry x="550" y="235" width="30" height="50" as="geometry" />
        </mxCell>
        <mxCell id="sDgrPTUQ4HozFk8zjUck-18" value="标记位图" style="text;html=1;strokeColor=none;fillColor=none;align=center;verticalAlign=middle;whiteSpace=wrap;rounded=0;" vertex="1" parent="1">
          <mxGeometry x="70" y="430" width="60" height="30" as="geometry" />
        </mxCell>
        <mxCell id="sDgrPTUQ4HozFk8zjUck-19" value="" style="rounded=0;whiteSpace=wrap;html=1;" vertex="1" parent="1">
          <mxGeometry x="150" y="427.5" width="180" height="35" as="geometry" />
        </mxCell>
        <mxCell id="sDgrPTUQ4HozFk8zjUck-20" value="1" style="rounded=0;whiteSpace=wrap;html=1;" vertex="1" parent="1">
          <mxGeometry x="150" y="427.5" width="20" height="35" as="geometry" />
        </mxCell>
        <mxCell id="sDgrPTUQ4HozFk8zjUck-21" value="0" style="rounded=0;whiteSpace=wrap;html=1;" vertex="1" parent="1">
          <mxGeometry x="170" y="427.5" width="20" height="35" as="geometry" />
        </mxCell>
        <mxCell id="sDgrPTUQ4HozFk8zjUck-22" value="1" style="rounded=0;whiteSpace=wrap;html=1;fillColor=#FFFFFF;fontColor=#000000;" vertex="1" parent="1">
          <mxGeometry x="190" y="427.5" width="20" height="35" as="geometry" />
        </mxCell>
        <mxCell id="sDgrPTUQ4HozFk8zjUck-23" value="0" style="rounded=0;whiteSpace=wrap;html=1;" vertex="1" parent="1">
          <mxGeometry x="210" y="427.5" width="20" height="35" as="geometry" />
        </mxCell>
        <mxCell id="sDgrPTUQ4HozFk8zjUck-24" value="1" style="rounded=0;whiteSpace=wrap;html=1;" vertex="1" parent="1">
          <mxGeometry x="230" y="427.5" width="20" height="35" as="geometry" />
        </mxCell>
        <mxCell id="sDgrPTUQ4HozFk8zjUck-25" value="0" style="rounded=0;whiteSpace=wrap;html=1;" vertex="1" parent="1">
          <mxGeometry x="250" y="427.5" width="20" height="35" as="geometry" />
        </mxCell>
        <mxCell id="sDgrPTUQ4HozFk8zjUck-26" value="0" style="rounded=0;whiteSpace=wrap;html=1;" vertex="1" parent="1">
          <mxGeometry x="270" y="427.5" width="20" height="35" as="geometry" />
        </mxCell>
        <mxCell id="sDgrPTUQ4HozFk8zjUck-27" value="0" style="rounded=0;whiteSpace=wrap;html=1;" vertex="1" parent="1">
          <mxGeometry x="290" y="427.5" width="20" height="35" as="geometry" />
        </mxCell>
        <mxCell id="sDgrPTUQ4HozFk8zjUck-28" value="0" style="rounded=0;whiteSpace=wrap;html=1;" vertex="1" parent="1">
          <mxGeometry x="310" y="427.5" width="20" height="35" as="geometry" />
        </mxCell>
        <mxCell id="sDgrPTUQ4HozFk8zjUck-29" value="nextTAMS" style="text;html=1;strokeColor=none;fillColor=none;align=center;verticalAlign=middle;whiteSpace=wrap;rounded=0;" vertex="1" parent="1">
          <mxGeometry x="550" y="330" width="60" height="30" as="geometry" />
        </mxCell>
        <mxCell id="sDgrPTUQ4HozFk8zjUck-30" value="" style="endArrow=classic;html=1;rounded=0;" edge="1" parent="1">
          <mxGeometry width="50" height="50" relative="1" as="geometry">
            <mxPoint x="580" y="330" as="sourcePoint" />
            <mxPoint x="579.66" y="290" as="targetPoint" />
          </mxGeometry>
        </mxCell>
        <mxCell id="sDgrPTUQ4HozFk8zjUck-31" value="I" style="rounded=1;whiteSpace=wrap;html=1;" vertex="1" parent="1">
          <mxGeometry x="595" y="235" width="30" height="50" as="geometry" />
        </mxCell>
        <mxCell id="sDgrPTUQ4HozFk8zjUck-32" value="I" style="rounded=1;whiteSpace=wrap;html=1;" vertex="1" parent="1">
          <mxGeometry x="640" y="235" width="30" height="50" as="geometry" />
        </mxCell>
        <mxCell id="sDgrPTUQ4HozFk8zjUck-33" value="K" style="rounded=1;whiteSpace=wrap;html=1;fontColor=#FFFFFF;fillColor=#000000;" vertex="1" parent="1">
          <mxGeometry x="640" y="235" width="30" height="50" as="geometry" />
        </mxCell>
        <mxCell id="sDgrPTUQ4HozFk8zjUck-34" value="J" style="rounded=1;whiteSpace=wrap;html=1;fontColor=#FFFFFF;fillColor=#000000;" vertex="1" parent="1">
          <mxGeometry x="595" y="235" width="30" height="50" as="geometry" />
        </mxCell>
        <mxCell id="sDgrPTUQ4HozFk8zjUck-35" value="prevTAMS" style="text;html=1;strokeColor=none;fillColor=none;align=center;verticalAlign=middle;whiteSpace=wrap;rounded=0;" vertex="1" parent="1">
          <mxGeometry x="120" y="330" width="60" height="30" as="geometry" />
        </mxCell>
        <mxCell id="sDgrPTUQ4HozFk8zjUck-36" value="" style="endArrow=classic;html=1;rounded=0;" edge="1" parent="1">
          <mxGeometry width="50" height="50" relative="1" as="geometry">
            <mxPoint x="150" y="330" as="sourcePoint" />
            <mxPoint x="149.65999999999997" y="290" as="targetPoint" />
          </mxGeometry>
        </mxCell>
      </root>
    </mxGraphModel>
  </diagram>
  <diagram id="eDBq14mgq3AhkY8XS7jF" name="第 4 页">
    <mxGraphModel dx="1418" dy="820" grid="1" gridSize="10" guides="1" tooltips="1" connect="1" arrows="1" fold="1" page="1" pageScale="1" pageWidth="827" pageHeight="1169" math="0" shadow="0">
      <root>
        <mxCell id="0" />
        <mxCell id="1" parent="0" />
        <mxCell id="2UBel0B6Sd5Llh047VUB-1" value="" style="rounded=0;whiteSpace=wrap;html=1;" vertex="1" parent="1">
          <mxGeometry x="220" y="240" width="510" height="40" as="geometry" />
        </mxCell>
        <mxCell id="2UBel0B6Sd5Llh047VUB-2" value="用户线程1的SATB本地队列" style="text;html=1;strokeColor=none;fillColor=none;align=center;verticalAlign=middle;whiteSpace=wrap;rounded=0;" vertex="1" parent="1">
          <mxGeometry x="50" y="245" width="160" height="30" as="geometry" />
        </mxCell>
        <mxCell id="2UBel0B6Sd5Llh047VUB-3" value="" style="rounded=0;whiteSpace=wrap;html=1;fillColor=#CCCCCC;" vertex="1" parent="1">
          <mxGeometry x="220" y="240" width="390" height="40" as="geometry" />
        </mxCell>
        <mxCell id="2UBel0B6Sd5Llh047VUB-4" value="" style="rounded=0;whiteSpace=wrap;html=1;" vertex="1" parent="1">
          <mxGeometry x="220" y="310" width="510" height="40" as="geometry" />
        </mxCell>
        <mxCell id="2UBel0B6Sd5Llh047VUB-5" value="用户线程2的SATB本地队列" style="text;html=1;strokeColor=none;fillColor=none;align=center;verticalAlign=middle;whiteSpace=wrap;rounded=0;" vertex="1" parent="1">
          <mxGeometry x="50" y="315" width="160" height="30" as="geometry" />
        </mxCell>
        <mxCell id="2UBel0B6Sd5Llh047VUB-6" value="" style="rounded=0;whiteSpace=wrap;html=1;fillColor=#CCCCCC;" vertex="1" parent="1">
          <mxGeometry x="220" y="310" width="110" height="40" as="geometry" />
        </mxCell>
        <mxCell id="2UBel0B6Sd5Llh047VUB-7" value="" style="rounded=0;whiteSpace=wrap;html=1;" vertex="1" parent="1">
          <mxGeometry x="220" y="390" width="510" height="40" as="geometry" />
        </mxCell>
        <mxCell id="2UBel0B6Sd5Llh047VUB-8" value="用户线程3的SATB本地队列" style="text;html=1;strokeColor=none;fillColor=none;align=center;verticalAlign=middle;whiteSpace=wrap;rounded=0;" vertex="1" parent="1">
          <mxGeometry x="50" y="395" width="160" height="30" as="geometry" />
        </mxCell>
        <mxCell id="2UBel0B6Sd5Llh047VUB-9" value="" style="rounded=0;whiteSpace=wrap;html=1;fillColor=#CCCCCC;" vertex="1" parent="1">
          <mxGeometry x="220" y="390" width="510" height="40" as="geometry" />
        </mxCell>
        <mxCell id="2UBel0B6Sd5Llh047VUB-10" value="" style="rounded=1;whiteSpace=wrap;html=1;" vertex="1" parent="1">
          <mxGeometry x="100" y="540" width="550" height="255" as="geometry" />
        </mxCell>
        <mxCell id="2UBel0B6Sd5Llh047VUB-11" value="" style="rounded=0;whiteSpace=wrap;html=1;fillColor=#CCCCCC;" vertex="1" parent="1">
          <mxGeometry x="120" y="580" width="510" height="40" as="geometry" />
        </mxCell>
        <mxCell id="2UBel0B6Sd5Llh047VUB-12" value="" style="rounded=0;whiteSpace=wrap;html=1;fillColor=#CCCCCC;" vertex="1" parent="1">
          <mxGeometry x="120" y="630" width="510" height="40" as="geometry" />
        </mxCell>
        <mxCell id="2UBel0B6Sd5Llh047VUB-13" value="" style="rounded=0;whiteSpace=wrap;html=1;fillColor=#CCCCCC;" vertex="1" parent="1">
          <mxGeometry x="120" y="680" width="510" height="40" as="geometry" />
        </mxCell>
        <mxCell id="2UBel0B6Sd5Llh047VUB-14" value="SATB队列集合" style="text;html=1;strokeColor=none;fillColor=none;align=center;verticalAlign=middle;whiteSpace=wrap;rounded=0;" vertex="1" parent="1">
          <mxGeometry x="325" y="540" width="100" height="30" as="geometry" />
        </mxCell>
        <mxCell id="2UBel0B6Sd5Llh047VUB-16" value="" style="endArrow=classic;html=1;rounded=0;edgeStyle=orthogonalEdgeStyle;curved=1;entryX=1.004;entryY=0.878;entryDx=0;entryDy=0;entryPerimeter=0;" edge="1" parent="1" target="2UBel0B6Sd5Llh047VUB-10">
          <mxGeometry width="50" height="50" relative="1" as="geometry">
            <mxPoint x="740" y="410" as="sourcePoint" />
            <mxPoint x="790" y="470" as="targetPoint" />
            <Array as="points">
              <mxPoint x="800" y="410" />
              <mxPoint x="800" y="764" />
            </Array>
          </mxGeometry>
        </mxCell>
        <mxCell id="2UBel0B6Sd5Llh047VUB-17" value="添加到SATB队列集合" style="edgeLabel;html=1;align=center;verticalAlign=middle;resizable=0;points=[];" vertex="1" connectable="0" parent="2UBel0B6Sd5Llh047VUB-16">
          <mxGeometry x="-0.0554" y="-3" relative="1" as="geometry">
            <mxPoint as="offset" />
          </mxGeometry>
        </mxCell>
      </root>
    </mxGraphModel>
  </diagram>
  <diagram id="1R25lVoI8jTU6MyTvXQY" name="第 5 页">
    <mxGraphModel dx="1418" dy="820" grid="1" gridSize="10" guides="1" tooltips="1" connect="1" arrows="1" fold="1" page="1" pageScale="1" pageWidth="827" pageHeight="1169" math="0" shadow="0">
      <root>
        <mxCell id="0" />
        <mxCell id="1" parent="0" />
        <mxCell id="oDoiXMKJvjJ7iC9LJrn6-1" value="" style="rounded=0;whiteSpace=wrap;html=1;fillColor=#ffe6cc;strokeColor=#d79b00;" vertex="1" parent="1">
          <mxGeometry x="150" y="230" width="580" height="60" as="geometry" />
        </mxCell>
        <mxCell id="oDoiXMKJvjJ7iC9LJrn6-2" value="" style="edgeStyle=orthogonalEdgeStyle;rounded=0;orthogonalLoop=1;jettySize=auto;html=1;" edge="1" parent="1" source="oDoiXMKJvjJ7iC9LJrn6-3">
          <mxGeometry relative="1" as="geometry">
            <mxPoint x="670" y="230" as="targetPoint" />
          </mxGeometry>
        </mxCell>
        <mxCell id="oDoiXMKJvjJ7iC9LJrn6-3" value="top" style="text;html=1;strokeColor=none;fillColor=none;align=center;verticalAlign=middle;whiteSpace=wrap;rounded=0;" vertex="1" parent="1">
          <mxGeometry x="640" y="150" width="60" height="30" as="geometry" />
        </mxCell>
        <mxCell id="oDoiXMKJvjJ7iC9LJrn6-4" value="" style="edgeStyle=orthogonalEdgeStyle;rounded=0;orthogonalLoop=1;jettySize=auto;html=1;" edge="1" parent="1" source="oDoiXMKJvjJ7iC9LJrn6-5">
          <mxGeometry relative="1" as="geometry">
            <mxPoint x="150" y="230" as="targetPoint" />
          </mxGeometry>
        </mxCell>
        <mxCell id="oDoiXMKJvjJ7iC9LJrn6-5" value="bottom" style="text;html=1;strokeColor=none;fillColor=none;align=center;verticalAlign=middle;whiteSpace=wrap;rounded=0;" vertex="1" parent="1">
          <mxGeometry x="120" y="150" width="60" height="30" as="geometry" />
        </mxCell>
        <mxCell id="oDoiXMKJvjJ7iC9LJrn6-6" value="A" style="rounded=1;whiteSpace=wrap;html=1;fillColor=#000000;fontColor=#FFFFFF;" vertex="1" parent="1">
          <mxGeometry x="150" y="235" width="50" height="50" as="geometry" />
        </mxCell>
        <mxCell id="oDoiXMKJvjJ7iC9LJrn6-7" value="Region" style="text;html=1;strokeColor=none;fillColor=none;align=center;verticalAlign=middle;whiteSpace=wrap;rounded=0;" vertex="1" parent="1">
          <mxGeometry x="70" y="245" width="60" height="30" as="geometry" />
        </mxCell>
        <mxCell id="oDoiXMKJvjJ7iC9LJrn6-8" value="B" style="rounded=1;whiteSpace=wrap;html=1;" vertex="1" parent="1">
          <mxGeometry x="210" y="235" width="30" height="50" as="geometry" />
        </mxCell>
        <mxCell id="oDoiXMKJvjJ7iC9LJrn6-9" style="edgeStyle=orthogonalEdgeStyle;rounded=0;orthogonalLoop=1;jettySize=auto;html=1;exitX=0.5;exitY=1;exitDx=0;exitDy=0;entryX=0.5;entryY=1;entryDx=0;entryDy=0;strokeColor=#FF0000;" edge="1" parent="1" source="oDoiXMKJvjJ7iC9LJrn6-11" target="oDoiXMKJvjJ7iC9LJrn6-6">
          <mxGeometry relative="1" as="geometry" />
        </mxCell>
        <mxCell id="oDoiXMKJvjJ7iC9LJrn6-10" style="edgeStyle=orthogonalEdgeStyle;rounded=0;orthogonalLoop=1;jettySize=auto;html=1;entryX=0.5;entryY=1;entryDx=0;entryDy=0;strokeColor=#FF0000;" edge="1" parent="1" source="oDoiXMKJvjJ7iC9LJrn6-11" target="oDoiXMKJvjJ7iC9LJrn6-13">
          <mxGeometry relative="1" as="geometry">
            <Array as="points">
              <mxPoint x="265" y="305" />
              <mxPoint x="385" y="305" />
            </Array>
          </mxGeometry>
        </mxCell>
        <mxCell id="oDoiXMKJvjJ7iC9LJrn6-11" value="C" style="rounded=1;whiteSpace=wrap;html=1;fillColor=#000000;fontColor=#FFFFFF;" vertex="1" parent="1">
          <mxGeometry x="250" y="235" width="30" height="50" as="geometry" />
        </mxCell>
        <mxCell id="oDoiXMKJvjJ7iC9LJrn6-12" value="D" style="rounded=1;whiteSpace=wrap;html=1;" vertex="1" parent="1">
          <mxGeometry x="290" y="235" width="70" height="50" as="geometry" />
        </mxCell>
        <mxCell id="oDoiXMKJvjJ7iC9LJrn6-13" value="E" style="rounded=1;whiteSpace=wrap;html=1;fillColor=#000000;fontColor=#FFFFFF;" vertex="1" parent="1">
          <mxGeometry x="370" y="235" width="30" height="50" as="geometry" />
        </mxCell>
        <mxCell id="oDoiXMKJvjJ7iC9LJrn6-14" value="F" style="rounded=1;whiteSpace=wrap;html=1;" vertex="1" parent="1">
          <mxGeometry x="410" y="235" width="30" height="50" as="geometry" />
        </mxCell>
        <mxCell id="oDoiXMKJvjJ7iC9LJrn6-15" value="G" style="rounded=1;whiteSpace=wrap;html=1;fillColor=#000000;fontColor=#FFFFFF;" vertex="1" parent="1">
          <mxGeometry x="450" y="235" width="30" height="50" as="geometry" />
        </mxCell>
        <mxCell id="oDoiXMKJvjJ7iC9LJrn6-37" style="edgeStyle=orthogonalEdgeStyle;rounded=0;orthogonalLoop=1;jettySize=auto;html=1;exitX=0.5;exitY=1;exitDx=0;exitDy=0;entryX=0.5;entryY=1;entryDx=0;entryDy=0;strokeColor=#FF0000;" edge="1" parent="1" source="oDoiXMKJvjJ7iC9LJrn6-16" target="oDoiXMKJvjJ7iC9LJrn6-17">
          <mxGeometry relative="1" as="geometry" />
        </mxCell>
        <mxCell id="oDoiXMKJvjJ7iC9LJrn6-16" value="H" style="rounded=1;whiteSpace=wrap;html=1;fillColor=#000000;fontColor=#FFFFFF;" vertex="1" parent="1">
          <mxGeometry x="490" y="235" width="50" height="50" as="geometry" />
        </mxCell>
        <mxCell id="oDoiXMKJvjJ7iC9LJrn6-17" value="I" style="rounded=1;whiteSpace=wrap;html=1;fillColor=#000000;fontColor=#FFFFFF;" vertex="1" parent="1">
          <mxGeometry x="550" y="235" width="30" height="50" as="geometry" />
        </mxCell>
        <mxCell id="oDoiXMKJvjJ7iC9LJrn6-18" value="标记位图" style="text;html=1;strokeColor=none;fillColor=none;align=center;verticalAlign=middle;whiteSpace=wrap;rounded=0;" vertex="1" parent="1">
          <mxGeometry x="70" y="430" width="60" height="30" as="geometry" />
        </mxCell>
        <mxCell id="oDoiXMKJvjJ7iC9LJrn6-19" value="" style="rounded=0;whiteSpace=wrap;html=1;" vertex="1" parent="1">
          <mxGeometry x="150" y="427.5" width="180" height="35" as="geometry" />
        </mxCell>
        <mxCell id="oDoiXMKJvjJ7iC9LJrn6-20" value="1" style="rounded=0;whiteSpace=wrap;html=1;" vertex="1" parent="1">
          <mxGeometry x="150" y="427.5" width="20" height="35" as="geometry" />
        </mxCell>
        <mxCell id="oDoiXMKJvjJ7iC9LJrn6-21" value="0" style="rounded=0;whiteSpace=wrap;html=1;" vertex="1" parent="1">
          <mxGeometry x="170" y="427.5" width="20" height="35" as="geometry" />
        </mxCell>
        <mxCell id="oDoiXMKJvjJ7iC9LJrn6-22" value="1" style="rounded=0;whiteSpace=wrap;html=1;fillColor=#FFFFFF;fontColor=#000000;" vertex="1" parent="1">
          <mxGeometry x="190" y="427.5" width="20" height="35" as="geometry" />
        </mxCell>
        <mxCell id="oDoiXMKJvjJ7iC9LJrn6-23" value="0" style="rounded=0;whiteSpace=wrap;html=1;" vertex="1" parent="1">
          <mxGeometry x="210" y="427.5" width="20" height="35" as="geometry" />
        </mxCell>
        <mxCell id="oDoiXMKJvjJ7iC9LJrn6-24" value="1" style="rounded=0;whiteSpace=wrap;html=1;" vertex="1" parent="1">
          <mxGeometry x="230" y="427.5" width="20" height="35" as="geometry" />
        </mxCell>
        <mxCell id="oDoiXMKJvjJ7iC9LJrn6-25" value="0" style="rounded=0;whiteSpace=wrap;html=1;" vertex="1" parent="1">
          <mxGeometry x="250" y="427.5" width="20" height="35" as="geometry" />
        </mxCell>
        <mxCell id="oDoiXMKJvjJ7iC9LJrn6-26" value="1" style="rounded=0;whiteSpace=wrap;html=1;" vertex="1" parent="1">
          <mxGeometry x="270" y="427.5" width="20" height="35" as="geometry" />
        </mxCell>
        <mxCell id="oDoiXMKJvjJ7iC9LJrn6-27" value="1" style="rounded=0;whiteSpace=wrap;html=1;" vertex="1" parent="1">
          <mxGeometry x="290" y="427.5" width="20" height="35" as="geometry" />
        </mxCell>
        <mxCell id="oDoiXMKJvjJ7iC9LJrn6-28" value="1" style="rounded=0;whiteSpace=wrap;html=1;" vertex="1" parent="1">
          <mxGeometry x="310" y="427.5" width="20" height="35" as="geometry" />
        </mxCell>
        <mxCell id="oDoiXMKJvjJ7iC9LJrn6-29" value="nextTAMS" style="text;html=1;strokeColor=none;fillColor=none;align=center;verticalAlign=middle;whiteSpace=wrap;rounded=0;" vertex="1" parent="1">
          <mxGeometry x="550" y="330" width="60" height="30" as="geometry" />
        </mxCell>
        <mxCell id="oDoiXMKJvjJ7iC9LJrn6-30" value="" style="endArrow=classic;html=1;rounded=0;" edge="1" parent="1">
          <mxGeometry width="50" height="50" relative="1" as="geometry">
            <mxPoint x="580" y="330" as="sourcePoint" />
            <mxPoint x="579.66" y="290" as="targetPoint" />
          </mxGeometry>
        </mxCell>
        <mxCell id="oDoiXMKJvjJ7iC9LJrn6-31" value="I" style="rounded=1;whiteSpace=wrap;html=1;" vertex="1" parent="1">
          <mxGeometry x="595" y="235" width="30" height="50" as="geometry" />
        </mxCell>
        <mxCell id="oDoiXMKJvjJ7iC9LJrn6-32" value="I" style="rounded=1;whiteSpace=wrap;html=1;" vertex="1" parent="1">
          <mxGeometry x="640" y="235" width="30" height="50" as="geometry" />
        </mxCell>
        <mxCell id="oDoiXMKJvjJ7iC9LJrn6-33" value="K" style="rounded=1;whiteSpace=wrap;html=1;fontColor=#FFFFFF;fillColor=#000000;" vertex="1" parent="1">
          <mxGeometry x="640" y="235" width="30" height="50" as="geometry" />
        </mxCell>
        <mxCell id="oDoiXMKJvjJ7iC9LJrn6-34" value="J" style="rounded=1;whiteSpace=wrap;html=1;fontColor=#FFFFFF;fillColor=#000000;" vertex="1" parent="1">
          <mxGeometry x="595" y="235" width="30" height="50" as="geometry" />
        </mxCell>
        <mxCell id="oDoiXMKJvjJ7iC9LJrn6-35" value="prevTAMS" style="text;html=1;strokeColor=none;fillColor=none;align=center;verticalAlign=middle;whiteSpace=wrap;rounded=0;" vertex="1" parent="1">
          <mxGeometry x="120" y="330" width="60" height="30" as="geometry" />
        </mxCell>
        <mxCell id="oDoiXMKJvjJ7iC9LJrn6-36" value="" style="endArrow=classic;html=1;rounded=0;" edge="1" parent="1">
          <mxGeometry width="50" height="50" relative="1" as="geometry">
            <mxPoint x="150" y="330" as="sourcePoint" />
            <mxPoint x="149.65999999999997" y="290" as="targetPoint" />
          </mxGeometry>
        </mxCell>
        <mxCell id="04zv5DheS70T8nH1Y6lO-1" value="" style="rounded=0;whiteSpace=wrap;html=1;" vertex="1" parent="1">
          <mxGeometry x="230" y="530" width="310" height="40" as="geometry" />
        </mxCell>
        <mxCell id="04zv5DheS70T8nH1Y6lO-2" value="用户线程1的SATB本地队列" style="text;html=1;strokeColor=none;fillColor=none;align=center;verticalAlign=middle;whiteSpace=wrap;rounded=0;" vertex="1" parent="1">
          <mxGeometry x="60" y="535" width="160" height="30" as="geometry" />
        </mxCell>
        <mxCell id="04zv5DheS70T8nH1Y6lO-8" value="G" style="ellipse;whiteSpace=wrap;html=1;aspect=fixed;fillColor=#CCCCCC;" vertex="1" parent="1">
          <mxGeometry x="250" y="530" width="40" height="40" as="geometry" />
        </mxCell>
        <mxCell id="04zv5DheS70T8nH1Y6lO-9" value="H" style="ellipse;whiteSpace=wrap;html=1;aspect=fixed;fillColor=#CCCCCC;" vertex="1" parent="1">
          <mxGeometry x="300" y="530" width="40" height="40" as="geometry" />
        </mxCell>
      </root>
    </mxGraphModel>
  </diagram>
  <diagram id="Qw8Q1NItYWnKJcqlURPM" name="第 6 页">
    <mxGraphModel dx="1418" dy="820" grid="1" gridSize="10" guides="1" tooltips="1" connect="1" arrows="1" fold="1" page="1" pageScale="1" pageWidth="827" pageHeight="1169" math="0" shadow="0">
      <root>
        <mxCell id="0" />
        <mxCell id="1" parent="0" />
        <mxCell id="KyyoSRESc9ktrbMZs9Cs-1" value="" style="rounded=0;whiteSpace=wrap;html=1;fillColor=#ffe6cc;strokeColor=#d79b00;" vertex="1" parent="1">
          <mxGeometry x="150" y="230" width="580" height="60" as="geometry" />
        </mxCell>
        <mxCell id="KyyoSRESc9ktrbMZs9Cs-2" value="" style="edgeStyle=orthogonalEdgeStyle;rounded=0;orthogonalLoop=1;jettySize=auto;html=1;" edge="1" parent="1" source="KyyoSRESc9ktrbMZs9Cs-3">
          <mxGeometry relative="1" as="geometry">
            <mxPoint x="670" y="230" as="targetPoint" />
          </mxGeometry>
        </mxCell>
        <mxCell id="KyyoSRESc9ktrbMZs9Cs-3" value="top" style="text;html=1;strokeColor=none;fillColor=none;align=center;verticalAlign=middle;whiteSpace=wrap;rounded=0;" vertex="1" parent="1">
          <mxGeometry x="640" y="150" width="60" height="30" as="geometry" />
        </mxCell>
        <mxCell id="KyyoSRESc9ktrbMZs9Cs-4" value="" style="edgeStyle=orthogonalEdgeStyle;rounded=0;orthogonalLoop=1;jettySize=auto;html=1;" edge="1" parent="1" source="KyyoSRESc9ktrbMZs9Cs-5">
          <mxGeometry relative="1" as="geometry">
            <mxPoint x="150" y="230" as="targetPoint" />
          </mxGeometry>
        </mxCell>
        <mxCell id="KyyoSRESc9ktrbMZs9Cs-5" value="bottom" style="text;html=1;strokeColor=none;fillColor=none;align=center;verticalAlign=middle;whiteSpace=wrap;rounded=0;" vertex="1" parent="1">
          <mxGeometry x="120" y="150" width="60" height="30" as="geometry" />
        </mxCell>
        <mxCell id="KyyoSRESc9ktrbMZs9Cs-6" value="A" style="rounded=1;whiteSpace=wrap;html=1;fillColor=#000000;fontColor=#FFFFFF;" vertex="1" parent="1">
          <mxGeometry x="150" y="235" width="50" height="50" as="geometry" />
        </mxCell>
        <mxCell id="KyyoSRESc9ktrbMZs9Cs-7" value="Region" style="text;html=1;strokeColor=none;fillColor=none;align=center;verticalAlign=middle;whiteSpace=wrap;rounded=0;" vertex="1" parent="1">
          <mxGeometry x="70" y="245" width="60" height="30" as="geometry" />
        </mxCell>
        <mxCell id="KyyoSRESc9ktrbMZs9Cs-8" value="B" style="rounded=1;whiteSpace=wrap;html=1;" vertex="1" parent="1">
          <mxGeometry x="210" y="235" width="30" height="50" as="geometry" />
        </mxCell>
        <mxCell id="KyyoSRESc9ktrbMZs9Cs-9" style="edgeStyle=orthogonalEdgeStyle;rounded=0;orthogonalLoop=1;jettySize=auto;html=1;exitX=0.5;exitY=1;exitDx=0;exitDy=0;entryX=0.5;entryY=1;entryDx=0;entryDy=0;strokeColor=#FF0000;" edge="1" parent="1" source="KyyoSRESc9ktrbMZs9Cs-11" target="KyyoSRESc9ktrbMZs9Cs-6">
          <mxGeometry relative="1" as="geometry" />
        </mxCell>
        <mxCell id="KyyoSRESc9ktrbMZs9Cs-10" style="edgeStyle=orthogonalEdgeStyle;rounded=0;orthogonalLoop=1;jettySize=auto;html=1;entryX=0.5;entryY=1;entryDx=0;entryDy=0;strokeColor=#FF0000;" edge="1" parent="1" source="KyyoSRESc9ktrbMZs9Cs-11" target="KyyoSRESc9ktrbMZs9Cs-13">
          <mxGeometry relative="1" as="geometry">
            <Array as="points">
              <mxPoint x="265" y="305" />
              <mxPoint x="385" y="305" />
            </Array>
          </mxGeometry>
        </mxCell>
        <mxCell id="KyyoSRESc9ktrbMZs9Cs-11" value="C" style="rounded=1;whiteSpace=wrap;html=1;fillColor=#000000;fontColor=#FFFFFF;" vertex="1" parent="1">
          <mxGeometry x="250" y="235" width="30" height="50" as="geometry" />
        </mxCell>
        <mxCell id="KyyoSRESc9ktrbMZs9Cs-12" value="D" style="rounded=1;whiteSpace=wrap;html=1;" vertex="1" parent="1">
          <mxGeometry x="290" y="235" width="70" height="50" as="geometry" />
        </mxCell>
        <mxCell id="KyyoSRESc9ktrbMZs9Cs-13" value="E" style="rounded=1;whiteSpace=wrap;html=1;fillColor=#000000;fontColor=#FFFFFF;" vertex="1" parent="1">
          <mxGeometry x="370" y="235" width="30" height="50" as="geometry" />
        </mxCell>
        <mxCell id="KyyoSRESc9ktrbMZs9Cs-14" value="F" style="rounded=1;whiteSpace=wrap;html=1;" vertex="1" parent="1">
          <mxGeometry x="410" y="235" width="30" height="50" as="geometry" />
        </mxCell>
        <mxCell id="KyyoSRESc9ktrbMZs9Cs-15" value="G" style="rounded=1;whiteSpace=wrap;html=1;fillColor=#000000;fontColor=#FFFFFF;" vertex="1" parent="1">
          <mxGeometry x="450" y="235" width="30" height="50" as="geometry" />
        </mxCell>
        <mxCell id="KyyoSRESc9ktrbMZs9Cs-16" style="edgeStyle=orthogonalEdgeStyle;rounded=0;orthogonalLoop=1;jettySize=auto;html=1;exitX=0.5;exitY=1;exitDx=0;exitDy=0;entryX=0.5;entryY=1;entryDx=0;entryDy=0;strokeColor=#FF0000;" edge="1" parent="1" source="KyyoSRESc9ktrbMZs9Cs-17" target="KyyoSRESc9ktrbMZs9Cs-18">
          <mxGeometry relative="1" as="geometry" />
        </mxCell>
        <mxCell id="KyyoSRESc9ktrbMZs9Cs-17" value="H" style="rounded=1;whiteSpace=wrap;html=1;fillColor=#000000;fontColor=#FFFFFF;" vertex="1" parent="1">
          <mxGeometry x="490" y="235" width="50" height="50" as="geometry" />
        </mxCell>
        <mxCell id="KyyoSRESc9ktrbMZs9Cs-18" value="I" style="rounded=1;whiteSpace=wrap;html=1;fillColor=#000000;fontColor=#FFFFFF;" vertex="1" parent="1">
          <mxGeometry x="550" y="235" width="30" height="50" as="geometry" />
        </mxCell>
        <mxCell id="KyyoSRESc9ktrbMZs9Cs-19" value="标记位图next" style="text;html=1;strokeColor=none;fillColor=none;align=center;verticalAlign=middle;whiteSpace=wrap;rounded=0;" vertex="1" parent="1">
          <mxGeometry x="50" y="430" width="80" height="30" as="geometry" />
        </mxCell>
        <mxCell id="KyyoSRESc9ktrbMZs9Cs-20" value="" style="rounded=0;whiteSpace=wrap;html=1;" vertex="1" parent="1">
          <mxGeometry x="150" y="427.5" width="180" height="35" as="geometry" />
        </mxCell>
        <mxCell id="KyyoSRESc9ktrbMZs9Cs-21" value="1" style="rounded=0;whiteSpace=wrap;html=1;" vertex="1" parent="1">
          <mxGeometry x="150" y="427.5" width="20" height="35" as="geometry" />
        </mxCell>
        <mxCell id="KyyoSRESc9ktrbMZs9Cs-22" value="0" style="rounded=0;whiteSpace=wrap;html=1;" vertex="1" parent="1">
          <mxGeometry x="170" y="427.5" width="20" height="35" as="geometry" />
        </mxCell>
        <mxCell id="KyyoSRESc9ktrbMZs9Cs-23" value="1" style="rounded=0;whiteSpace=wrap;html=1;fillColor=#FFFFFF;fontColor=#000000;" vertex="1" parent="1">
          <mxGeometry x="190" y="427.5" width="20" height="35" as="geometry" />
        </mxCell>
        <mxCell id="KyyoSRESc9ktrbMZs9Cs-24" value="0" style="rounded=0;whiteSpace=wrap;html=1;" vertex="1" parent="1">
          <mxGeometry x="210" y="427.5" width="20" height="35" as="geometry" />
        </mxCell>
        <mxCell id="KyyoSRESc9ktrbMZs9Cs-25" value="1" style="rounded=0;whiteSpace=wrap;html=1;" vertex="1" parent="1">
          <mxGeometry x="230" y="427.5" width="20" height="35" as="geometry" />
        </mxCell>
        <mxCell id="KyyoSRESc9ktrbMZs9Cs-26" value="0" style="rounded=0;whiteSpace=wrap;html=1;" vertex="1" parent="1">
          <mxGeometry x="250" y="427.5" width="20" height="35" as="geometry" />
        </mxCell>
        <mxCell id="KyyoSRESc9ktrbMZs9Cs-27" value="1" style="rounded=0;whiteSpace=wrap;html=1;" vertex="1" parent="1">
          <mxGeometry x="270" y="427.5" width="20" height="35" as="geometry" />
        </mxCell>
        <mxCell id="KyyoSRESc9ktrbMZs9Cs-28" value="1" style="rounded=0;whiteSpace=wrap;html=1;" vertex="1" parent="1">
          <mxGeometry x="290" y="427.5" width="20" height="35" as="geometry" />
        </mxCell>
        <mxCell id="KyyoSRESc9ktrbMZs9Cs-29" value="1" style="rounded=0;whiteSpace=wrap;html=1;" vertex="1" parent="1">
          <mxGeometry x="310" y="427.5" width="20" height="35" as="geometry" />
        </mxCell>
        <mxCell id="KyyoSRESc9ktrbMZs9Cs-30" value="nextTAMS" style="text;html=1;strokeColor=none;fillColor=none;align=center;verticalAlign=middle;whiteSpace=wrap;rounded=0;" vertex="1" parent="1">
          <mxGeometry x="550" y="330" width="60" height="30" as="geometry" />
        </mxCell>
        <mxCell id="KyyoSRESc9ktrbMZs9Cs-31" value="" style="endArrow=classic;html=1;rounded=0;" edge="1" parent="1">
          <mxGeometry width="50" height="50" relative="1" as="geometry">
            <mxPoint x="580" y="330" as="sourcePoint" />
            <mxPoint x="579.66" y="290" as="targetPoint" />
          </mxGeometry>
        </mxCell>
        <mxCell id="KyyoSRESc9ktrbMZs9Cs-32" value="I" style="rounded=1;whiteSpace=wrap;html=1;" vertex="1" parent="1">
          <mxGeometry x="595" y="235" width="30" height="50" as="geometry" />
        </mxCell>
        <mxCell id="KyyoSRESc9ktrbMZs9Cs-33" value="I" style="rounded=1;whiteSpace=wrap;html=1;" vertex="1" parent="1">
          <mxGeometry x="640" y="235" width="30" height="50" as="geometry" />
        </mxCell>
        <mxCell id="KyyoSRESc9ktrbMZs9Cs-34" value="K" style="rounded=1;whiteSpace=wrap;html=1;fontColor=#FFFFFF;fillColor=#000000;" vertex="1" parent="1">
          <mxGeometry x="640" y="235" width="30" height="50" as="geometry" />
        </mxCell>
        <mxCell id="KyyoSRESc9ktrbMZs9Cs-35" value="J" style="rounded=1;whiteSpace=wrap;html=1;fontColor=#FFFFFF;fillColor=#000000;" vertex="1" parent="1">
          <mxGeometry x="595" y="235" width="30" height="50" as="geometry" />
        </mxCell>
        <mxCell id="KyyoSRESc9ktrbMZs9Cs-36" value="prevTAMS" style="text;html=1;strokeColor=none;fillColor=none;align=center;verticalAlign=middle;whiteSpace=wrap;rounded=0;" vertex="1" parent="1">
          <mxGeometry x="120" y="330" width="60" height="30" as="geometry" />
        </mxCell>
        <mxCell id="KyyoSRESc9ktrbMZs9Cs-37" value="" style="endArrow=classic;html=1;rounded=0;" edge="1" parent="1">
          <mxGeometry width="50" height="50" relative="1" as="geometry">
            <mxPoint x="150" y="330" as="sourcePoint" />
            <mxPoint x="149.65999999999997" y="290" as="targetPoint" />
          </mxGeometry>
        </mxCell>
        <mxCell id="KyyoSRESc9ktrbMZs9Cs-42" value="next_marked_bytes" style="text;html=1;strokeColor=none;fillColor=none;align=center;verticalAlign=middle;whiteSpace=wrap;rounded=0;" vertex="1" parent="1">
          <mxGeometry x="30" y="530" width="120" height="30" as="geometry" />
        </mxCell>
        <mxCell id="KyyoSRESc9ktrbMZs9Cs-43" value="对象A、C、E、G、H、I的总字节数" style="rounded=0;whiteSpace=wrap;html=1;" vertex="1" parent="1">
          <mxGeometry x="150" y="522.5" width="180" height="45" as="geometry" />
        </mxCell>
        <mxCell id="KyyoSRESc9ktrbMZs9Cs-44" value="prev_marked_bytes" style="text;html=1;strokeColor=none;fillColor=none;align=center;verticalAlign=middle;whiteSpace=wrap;rounded=0;" vertex="1" parent="1">
          <mxGeometry x="30" y="607.5" width="120" height="30" as="geometry" />
        </mxCell>
        <mxCell id="KyyoSRESc9ktrbMZs9Cs-45" value="0" style="rounded=0;whiteSpace=wrap;html=1;" vertex="1" parent="1">
          <mxGeometry x="150" y="600" width="180" height="45" as="geometry" />
        </mxCell>
      </root>
    </mxGraphModel>
  </diagram>
  <diagram id="qpWJ7molm6H4PXQdfR6B" name="第 7 页">
    <mxGraphModel dx="1036" dy="606" grid="1" gridSize="10" guides="1" tooltips="1" connect="1" arrows="1" fold="1" page="1" pageScale="1" pageWidth="827" pageHeight="1169" math="0" shadow="0">
      <root>
        <mxCell id="0" />
        <mxCell id="1" parent="0" />
        <mxCell id="0hPDeBaemhJ-ppr0drpw-1" value="" style="rounded=0;whiteSpace=wrap;html=1;fillColor=#ffe6cc;strokeColor=#d79b00;" parent="1" vertex="1">
          <mxGeometry x="150" y="230" width="580" height="60" as="geometry" />
        </mxCell>
        <mxCell id="0hPDeBaemhJ-ppr0drpw-2" value="" style="edgeStyle=orthogonalEdgeStyle;rounded=0;orthogonalLoop=1;jettySize=auto;html=1;" parent="1" source="0hPDeBaemhJ-ppr0drpw-3" edge="1">
          <mxGeometry relative="1" as="geometry">
            <mxPoint x="670" y="230" as="targetPoint" />
          </mxGeometry>
        </mxCell>
        <mxCell id="0hPDeBaemhJ-ppr0drpw-3" value="top" style="text;html=1;strokeColor=none;fillColor=none;align=center;verticalAlign=middle;whiteSpace=wrap;rounded=0;" parent="1" vertex="1">
          <mxGeometry x="640" y="150" width="60" height="30" as="geometry" />
        </mxCell>
        <mxCell id="0hPDeBaemhJ-ppr0drpw-4" value="" style="edgeStyle=orthogonalEdgeStyle;rounded=0;orthogonalLoop=1;jettySize=auto;html=1;" parent="1" source="0hPDeBaemhJ-ppr0drpw-5" edge="1">
          <mxGeometry relative="1" as="geometry">
            <mxPoint x="150" y="230" as="targetPoint" />
          </mxGeometry>
        </mxCell>
        <mxCell id="0hPDeBaemhJ-ppr0drpw-5" value="bottom" style="text;html=1;strokeColor=none;fillColor=none;align=center;verticalAlign=middle;whiteSpace=wrap;rounded=0;" parent="1" vertex="1">
          <mxGeometry x="120" y="150" width="60" height="30" as="geometry" />
        </mxCell>
        <mxCell id="0hPDeBaemhJ-ppr0drpw-6" value="A" style="rounded=1;whiteSpace=wrap;html=1;fillColor=#000000;fontColor=#FFFFFF;" parent="1" vertex="1">
          <mxGeometry x="150" y="235" width="50" height="50" as="geometry" />
        </mxCell>
        <mxCell id="0hPDeBaemhJ-ppr0drpw-7" value="Region" style="text;html=1;strokeColor=none;fillColor=none;align=center;verticalAlign=middle;whiteSpace=wrap;rounded=0;" parent="1" vertex="1">
          <mxGeometry x="70" y="245" width="60" height="30" as="geometry" />
        </mxCell>
        <mxCell id="0hPDeBaemhJ-ppr0drpw-8" value="B" style="rounded=1;whiteSpace=wrap;html=1;" parent="1" vertex="1">
          <mxGeometry x="210" y="235" width="30" height="50" as="geometry" />
        </mxCell>
        <mxCell id="0hPDeBaemhJ-ppr0drpw-9" style="edgeStyle=orthogonalEdgeStyle;rounded=0;orthogonalLoop=1;jettySize=auto;html=1;exitX=0.5;exitY=1;exitDx=0;exitDy=0;entryX=0.5;entryY=1;entryDx=0;entryDy=0;strokeColor=#FF0000;" parent="1" source="0hPDeBaemhJ-ppr0drpw-11" target="0hPDeBaemhJ-ppr0drpw-6" edge="1">
          <mxGeometry relative="1" as="geometry" />
        </mxCell>
        <mxCell id="0hPDeBaemhJ-ppr0drpw-10" style="edgeStyle=orthogonalEdgeStyle;rounded=0;orthogonalLoop=1;jettySize=auto;html=1;entryX=0.5;entryY=1;entryDx=0;entryDy=0;strokeColor=#FF0000;" parent="1" source="0hPDeBaemhJ-ppr0drpw-11" target="0hPDeBaemhJ-ppr0drpw-13" edge="1">
          <mxGeometry relative="1" as="geometry">
            <Array as="points">
              <mxPoint x="265" y="305" />
              <mxPoint x="385" y="305" />
            </Array>
          </mxGeometry>
        </mxCell>
        <mxCell id="0hPDeBaemhJ-ppr0drpw-11" value="C" style="rounded=1;whiteSpace=wrap;html=1;fillColor=#000000;fontColor=#FFFFFF;" parent="1" vertex="1">
          <mxGeometry x="250" y="235" width="30" height="50" as="geometry" />
        </mxCell>
        <mxCell id="0hPDeBaemhJ-ppr0drpw-12" value="D" style="rounded=1;whiteSpace=wrap;html=1;" parent="1" vertex="1">
          <mxGeometry x="290" y="235" width="70" height="50" as="geometry" />
        </mxCell>
        <mxCell id="0hPDeBaemhJ-ppr0drpw-13" value="E" style="rounded=1;whiteSpace=wrap;html=1;fillColor=#000000;fontColor=#FFFFFF;" parent="1" vertex="1">
          <mxGeometry x="370" y="235" width="30" height="50" as="geometry" />
        </mxCell>
        <mxCell id="0hPDeBaemhJ-ppr0drpw-14" value="F" style="rounded=1;whiteSpace=wrap;html=1;" parent="1" vertex="1">
          <mxGeometry x="410" y="235" width="30" height="50" as="geometry" />
        </mxCell>
        <mxCell id="0hPDeBaemhJ-ppr0drpw-15" value="G" style="rounded=1;whiteSpace=wrap;html=1;fillColor=#000000;fontColor=#FFFFFF;" parent="1" vertex="1">
          <mxGeometry x="450" y="235" width="30" height="50" as="geometry" />
        </mxCell>
        <mxCell id="0hPDeBaemhJ-ppr0drpw-16" style="edgeStyle=orthogonalEdgeStyle;rounded=0;orthogonalLoop=1;jettySize=auto;html=1;exitX=0.5;exitY=1;exitDx=0;exitDy=0;entryX=0.5;entryY=1;entryDx=0;entryDy=0;strokeColor=#FF0000;" parent="1" source="0hPDeBaemhJ-ppr0drpw-17" target="0hPDeBaemhJ-ppr0drpw-18" edge="1">
          <mxGeometry relative="1" as="geometry" />
        </mxCell>
        <mxCell id="0hPDeBaemhJ-ppr0drpw-17" value="H" style="rounded=1;whiteSpace=wrap;html=1;fillColor=#000000;fontColor=#FFFFFF;" parent="1" vertex="1">
          <mxGeometry x="490" y="235" width="50" height="50" as="geometry" />
        </mxCell>
        <mxCell id="0hPDeBaemhJ-ppr0drpw-18" value="I" style="rounded=1;whiteSpace=wrap;html=1;fillColor=#000000;fontColor=#FFFFFF;" parent="1" vertex="1">
          <mxGeometry x="550" y="235" width="30" height="50" as="geometry" />
        </mxCell>
        <mxCell id="0hPDeBaemhJ-ppr0drpw-19" value="标记位图next" style="text;html=1;strokeColor=none;fillColor=none;align=center;verticalAlign=middle;whiteSpace=wrap;rounded=0;" parent="1" vertex="1">
          <mxGeometry x="50" y="430" width="80" height="30" as="geometry" />
        </mxCell>
        <mxCell id="0hPDeBaemhJ-ppr0drpw-30" value="prevTAMS" style="text;html=1;strokeColor=none;fillColor=none;align=center;verticalAlign=middle;whiteSpace=wrap;rounded=0;" parent="1" vertex="1">
          <mxGeometry x="550" y="330" width="60" height="30" as="geometry" />
        </mxCell>
        <mxCell id="0hPDeBaemhJ-ppr0drpw-31" value="" style="endArrow=classic;html=1;rounded=0;" parent="1" edge="1">
          <mxGeometry width="50" height="50" relative="1" as="geometry">
            <mxPoint x="580" y="330" as="sourcePoint" />
            <mxPoint x="579.66" y="290" as="targetPoint" />
          </mxGeometry>
        </mxCell>
        <mxCell id="0hPDeBaemhJ-ppr0drpw-32" value="I" style="rounded=1;whiteSpace=wrap;html=1;" parent="1" vertex="1">
          <mxGeometry x="595" y="235" width="30" height="50" as="geometry" />
        </mxCell>
        <mxCell id="0hPDeBaemhJ-ppr0drpw-33" value="I" style="rounded=1;whiteSpace=wrap;html=1;" parent="1" vertex="1">
          <mxGeometry x="640" y="235" width="30" height="50" as="geometry" />
        </mxCell>
        <mxCell id="0hPDeBaemhJ-ppr0drpw-34" value="K" style="rounded=1;whiteSpace=wrap;html=1;fontColor=#FFFFFF;fillColor=#000000;" parent="1" vertex="1">
          <mxGeometry x="640" y="235" width="30" height="50" as="geometry" />
        </mxCell>
        <mxCell id="0hPDeBaemhJ-ppr0drpw-35" value="J" style="rounded=1;whiteSpace=wrap;html=1;fontColor=#FFFFFF;fillColor=#000000;" parent="1" vertex="1">
          <mxGeometry x="595" y="235" width="30" height="50" as="geometry" />
        </mxCell>
        <mxCell id="0hPDeBaemhJ-ppr0drpw-36" value="nextTAMS" style="text;html=1;strokeColor=none;fillColor=none;align=center;verticalAlign=middle;whiteSpace=wrap;rounded=0;" parent="1" vertex="1">
          <mxGeometry x="120" y="330" width="60" height="30" as="geometry" />
        </mxCell>
        <mxCell id="0hPDeBaemhJ-ppr0drpw-37" value="" style="endArrow=classic;html=1;rounded=0;" parent="1" edge="1">
          <mxGeometry width="50" height="50" relative="1" as="geometry">
            <mxPoint x="150" y="330" as="sourcePoint" />
            <mxPoint x="149.65999999999997" y="290" as="targetPoint" />
          </mxGeometry>
        </mxCell>
        <mxCell id="0hPDeBaemhJ-ppr0drpw-38" value="next_marked_bytes" style="text;html=1;strokeColor=none;fillColor=none;align=center;verticalAlign=middle;whiteSpace=wrap;rounded=0;" parent="1" vertex="1">
          <mxGeometry x="30" y="597.5" width="120" height="30" as="geometry" />
        </mxCell>
        <mxCell id="0hPDeBaemhJ-ppr0drpw-56" style="edgeStyle=orthogonalEdgeStyle;rounded=0;orthogonalLoop=1;jettySize=auto;html=1;exitX=1;exitY=0.5;exitDx=0;exitDy=0;entryX=1;entryY=0.5;entryDx=0;entryDy=0;curved=1;" parent="1" source="0hPDeBaemhJ-ppr0drpw-39" target="0hPDeBaemhJ-ppr0drpw-41" edge="1">
          <mxGeometry relative="1" as="geometry">
            <Array as="points">
              <mxPoint x="380" y="613" />
              <mxPoint x="380" y="690" />
            </Array>
          </mxGeometry>
        </mxCell>
        <mxCell id="0hPDeBaemhJ-ppr0drpw-39" value="0" style="rounded=0;whiteSpace=wrap;html=1;" parent="1" vertex="1">
          <mxGeometry x="150" y="590" width="180" height="45" as="geometry" />
        </mxCell>
        <mxCell id="0hPDeBaemhJ-ppr0drpw-40" value="prev_marked_bytes" style="text;html=1;strokeColor=none;fillColor=none;align=center;verticalAlign=middle;whiteSpace=wrap;rounded=0;" parent="1" vertex="1">
          <mxGeometry x="30" y="675" width="120" height="30" as="geometry" />
        </mxCell>
        <mxCell id="0hPDeBaemhJ-ppr0drpw-41" value="对象A、C、E、G、H、I的总字节数" style="rounded=0;whiteSpace=wrap;html=1;" parent="1" vertex="1">
          <mxGeometry x="150" y="667.5" width="180" height="45" as="geometry" />
        </mxCell>
        <mxCell id="0hPDeBaemhJ-ppr0drpw-42" value="标记位图prev" style="text;html=1;strokeColor=none;fillColor=none;align=center;verticalAlign=middle;whiteSpace=wrap;rounded=0;" parent="1" vertex="1">
          <mxGeometry x="50" y="502.5" width="80" height="30" as="geometry" />
        </mxCell>
        <mxCell id="0hPDeBaemhJ-ppr0drpw-43" value="" style="rounded=0;whiteSpace=wrap;html=1;" parent="1" vertex="1">
          <mxGeometry x="150" y="500" width="180" height="35" as="geometry" />
        </mxCell>
        <mxCell id="0hPDeBaemhJ-ppr0drpw-44" value="1" style="rounded=0;whiteSpace=wrap;html=1;" parent="1" vertex="1">
          <mxGeometry x="150" y="500" width="20" height="35" as="geometry" />
        </mxCell>
        <mxCell id="0hPDeBaemhJ-ppr0drpw-45" value="0" style="rounded=0;whiteSpace=wrap;html=1;" parent="1" vertex="1">
          <mxGeometry x="170" y="500" width="20" height="35" as="geometry" />
        </mxCell>
        <mxCell id="0hPDeBaemhJ-ppr0drpw-46" value="1" style="rounded=0;whiteSpace=wrap;html=1;fillColor=#FFFFFF;fontColor=#000000;" parent="1" vertex="1">
          <mxGeometry x="190" y="500" width="20" height="35" as="geometry" />
        </mxCell>
        <mxCell id="0hPDeBaemhJ-ppr0drpw-47" value="0" style="rounded=0;whiteSpace=wrap;html=1;" parent="1" vertex="1">
          <mxGeometry x="210" y="500" width="20" height="35" as="geometry" />
        </mxCell>
        <mxCell id="0hPDeBaemhJ-ppr0drpw-48" value="1" style="rounded=0;whiteSpace=wrap;html=1;" parent="1" vertex="1">
          <mxGeometry x="230" y="500" width="20" height="35" as="geometry" />
        </mxCell>
        <mxCell id="0hPDeBaemhJ-ppr0drpw-49" value="0" style="rounded=0;whiteSpace=wrap;html=1;" parent="1" vertex="1">
          <mxGeometry x="250" y="500" width="20" height="35" as="geometry" />
        </mxCell>
        <mxCell id="0hPDeBaemhJ-ppr0drpw-50" value="1" style="rounded=0;whiteSpace=wrap;html=1;" parent="1" vertex="1">
          <mxGeometry x="270" y="500" width="20" height="35" as="geometry" />
        </mxCell>
        <mxCell id="0hPDeBaemhJ-ppr0drpw-51" value="1" style="rounded=0;whiteSpace=wrap;html=1;" parent="1" vertex="1">
          <mxGeometry x="290" y="500" width="20" height="35" as="geometry" />
        </mxCell>
        <mxCell id="0hPDeBaemhJ-ppr0drpw-52" value="1" style="rounded=0;whiteSpace=wrap;html=1;" parent="1" vertex="1">
          <mxGeometry x="310" y="500" width="20" height="35" as="geometry" />
        </mxCell>
        <mxCell id="0hPDeBaemhJ-ppr0drpw-54" value="空" style="text;html=1;strokeColor=none;fillColor=none;align=center;verticalAlign=middle;whiteSpace=wrap;rounded=0;" parent="1" vertex="1">
          <mxGeometry x="130" y="430" width="60" height="30" as="geometry" />
        </mxCell>
        <mxCell id="0hPDeBaemhJ-ppr0drpw-55" value="&lt;div&gt;next_marked_bytes中的值会被移到&lt;span style=&quot;background-color: initial;&quot;&gt;prev_marked_bytes中&lt;/span&gt;&lt;/div&gt;" style="text;html=1;strokeColor=none;fillColor=none;align=center;verticalAlign=middle;whiteSpace=wrap;rounded=0;" parent="1" vertex="1">
          <mxGeometry x="380" y="635" width="330" height="30" as="geometry" />
        </mxCell>
      </root>
    </mxGraphModel>
  </diagram>
  <diagram id="KuQklrC-Ap0Ic-6v7n8_" name="第 8 页">
    <mxGraphModel dx="1036" dy="606" grid="1" gridSize="10" guides="1" tooltips="1" connect="1" arrows="1" fold="1" page="1" pageScale="1" pageWidth="827" pageHeight="1169" math="0" shadow="0">
      <root>
        <mxCell id="0" />
        <mxCell id="1" parent="0" />
        <mxCell id="i0e7miFyU7D19OX3_-Kd-15" style="rounded=0;orthogonalLoop=1;jettySize=auto;html=1;exitX=0.425;exitY=1;exitDx=0;exitDy=0;entryX=0.5;entryY=0;entryDx=0;entryDy=0;exitPerimeter=0;strokeColor=#FF0000;" parent="1" source="i0e7miFyU7D19OX3_-Kd-1" target="i0e7miFyU7D19OX3_-Kd-3" edge="1">
          <mxGeometry relative="1" as="geometry" />
        </mxCell>
        <mxCell id="i0e7miFyU7D19OX3_-Kd-17" style="rounded=0;orthogonalLoop=1;jettySize=auto;html=1;entryX=0.5;entryY=0;entryDx=0;entryDy=0;strokeColor=#FF0000;" parent="1" source="i0e7miFyU7D19OX3_-Kd-1" target="i0e7miFyU7D19OX3_-Kd-7" edge="1">
          <mxGeometry relative="1" as="geometry" />
        </mxCell>
        <mxCell id="i0e7miFyU7D19OX3_-Kd-1" value="GC Roots" style="rounded=1;whiteSpace=wrap;html=1;" parent="1" vertex="1">
          <mxGeometry x="299" y="110" width="120" height="60" as="geometry" />
        </mxCell>
        <mxCell id="i0e7miFyU7D19OX3_-Kd-2" value="" style="rounded=0;whiteSpace=wrap;html=1;" parent="1" vertex="1">
          <mxGeometry x="90" y="260" width="200" height="40" as="geometry" />
        </mxCell>
        <mxCell id="i0e7miFyU7D19OX3_-Kd-16" style="edgeStyle=orthogonalEdgeStyle;rounded=0;orthogonalLoop=1;jettySize=auto;html=1;entryX=0.5;entryY=1;entryDx=0;entryDy=0;fillColor=#e51400;strokeColor=#FF0000;" parent="1" source="i0e7miFyU7D19OX3_-Kd-3" target="i0e7miFyU7D19OX3_-Kd-4" edge="1">
          <mxGeometry relative="1" as="geometry">
            <Array as="points">
              <mxPoint x="105" y="330" />
              <mxPoint x="135" y="330" />
            </Array>
          </mxGeometry>
        </mxCell>
        <mxCell id="i0e7miFyU7D19OX3_-Kd-3" value="a" style="rounded=1;whiteSpace=wrap;html=1;" parent="1" vertex="1">
          <mxGeometry x="90" y="260" width="30" height="40" as="geometry" />
        </mxCell>
        <mxCell id="i0e7miFyU7D19OX3_-Kd-4" value="b" style="rounded=1;whiteSpace=wrap;html=1;" parent="1" vertex="1">
          <mxGeometry x="120" y="260" width="30" height="40" as="geometry" />
        </mxCell>
        <mxCell id="i0e7miFyU7D19OX3_-Kd-6" value="" style="rounded=0;whiteSpace=wrap;html=1;" parent="1" vertex="1">
          <mxGeometry x="314" y="260" width="200" height="40" as="geometry" />
        </mxCell>
        <mxCell id="i0e7miFyU7D19OX3_-Kd-7" value="c" style="rounded=1;whiteSpace=wrap;html=1;" parent="1" vertex="1">
          <mxGeometry x="314" y="260" width="30" height="40" as="geometry" />
        </mxCell>
        <mxCell id="i0e7miFyU7D19OX3_-Kd-18" style="edgeStyle=orthogonalEdgeStyle;rounded=0;orthogonalLoop=1;jettySize=auto;html=1;entryX=0.5;entryY=1;entryDx=0;entryDy=0;strokeColor=#FF0000;" parent="1" source="i0e7miFyU7D19OX3_-Kd-8" target="i0e7miFyU7D19OX3_-Kd-9" edge="1">
          <mxGeometry relative="1" as="geometry">
            <Array as="points">
              <mxPoint x="359" y="330" />
              <mxPoint x="389" y="330" />
            </Array>
          </mxGeometry>
        </mxCell>
        <mxCell id="i0e7miFyU7D19OX3_-Kd-8" value="d" style="rounded=1;whiteSpace=wrap;html=1;" parent="1" vertex="1">
          <mxGeometry x="344" y="260" width="30" height="40" as="geometry" />
        </mxCell>
        <mxCell id="i0e7miFyU7D19OX3_-Kd-9" value="e" style="rounded=1;whiteSpace=wrap;html=1;" parent="1" vertex="1">
          <mxGeometry x="374" y="260" width="30" height="40" as="geometry" />
        </mxCell>
        <mxCell id="i0e7miFyU7D19OX3_-Kd-11" value="空闲" style="rounded=0;whiteSpace=wrap;html=1;" parent="1" vertex="1">
          <mxGeometry x="560" y="260" width="200" height="40" as="geometry" />
        </mxCell>
        <mxCell id="i0e7miFyU7D19OX3_-Kd-19" value="" style="shape=flexArrow;endArrow=classic;html=1;rounded=0;" parent="1" edge="1">
          <mxGeometry width="50" height="50" relative="1" as="geometry">
            <mxPoint x="330" y="370" as="sourcePoint" />
            <mxPoint x="330" y="440" as="targetPoint" />
          </mxGeometry>
        </mxCell>
        <mxCell id="i0e7miFyU7D19OX3_-Kd-20" value="转移" style="text;html=1;strokeColor=none;fillColor=none;align=center;verticalAlign=middle;whiteSpace=wrap;rounded=0;" parent="1" vertex="1">
          <mxGeometry x="344" y="390" width="60" height="30" as="geometry" />
        </mxCell>
        <mxCell id="i0e7miFyU7D19OX3_-Kd-21" style="rounded=0;orthogonalLoop=1;jettySize=auto;html=1;exitX=0.425;exitY=1;exitDx=0;exitDy=0;entryX=0.5;entryY=0;entryDx=0;entryDy=0;exitPerimeter=0;strokeColor=#FF0000;" parent="1" source="i0e7miFyU7D19OX3_-Kd-23" target="i0e7miFyU7D19OX3_-Kd-34" edge="1">
          <mxGeometry relative="1" as="geometry">
            <mxPoint x="105" y="625" as="targetPoint" />
          </mxGeometry>
        </mxCell>
        <mxCell id="i0e7miFyU7D19OX3_-Kd-22" style="rounded=0;orthogonalLoop=1;jettySize=auto;html=1;entryX=0.5;entryY=0;entryDx=0;entryDy=0;strokeColor=#FF0000;exitX=0.459;exitY=1.009;exitDx=0;exitDy=0;exitPerimeter=0;" parent="1" source="i0e7miFyU7D19OX3_-Kd-23" target="i0e7miFyU7D19OX3_-Kd-37" edge="1">
          <mxGeometry relative="1" as="geometry">
            <mxPoint x="329" y="625" as="targetPoint" />
          </mxGeometry>
        </mxCell>
        <mxCell id="i0e7miFyU7D19OX3_-Kd-23" value="GC Roots" style="rounded=1;whiteSpace=wrap;html=1;" parent="1" vertex="1">
          <mxGeometry x="299" y="475" width="120" height="60" as="geometry" />
        </mxCell>
        <mxCell id="i0e7miFyU7D19OX3_-Kd-24" value="空闲" style="rounded=0;whiteSpace=wrap;html=1;" parent="1" vertex="1">
          <mxGeometry x="90" y="625" width="200" height="40" as="geometry" />
        </mxCell>
        <mxCell id="i0e7miFyU7D19OX3_-Kd-28" value="空闲" style="rounded=0;whiteSpace=wrap;html=1;" parent="1" vertex="1">
          <mxGeometry x="314" y="625" width="200" height="40" as="geometry" />
        </mxCell>
        <mxCell id="i0e7miFyU7D19OX3_-Kd-33" value="" style="rounded=0;whiteSpace=wrap;html=1;" parent="1" vertex="1">
          <mxGeometry x="560" y="625" width="200" height="40" as="geometry" />
        </mxCell>
        <mxCell id="i0e7miFyU7D19OX3_-Kd-34" value="a" style="rounded=1;whiteSpace=wrap;html=1;" parent="1" vertex="1">
          <mxGeometry x="560" y="625" width="30" height="40" as="geometry" />
        </mxCell>
        <mxCell id="i0e7miFyU7D19OX3_-Kd-35" value="b" style="rounded=1;whiteSpace=wrap;html=1;" parent="1" vertex="1">
          <mxGeometry x="590" y="625" width="30" height="40" as="geometry" />
        </mxCell>
        <mxCell id="i0e7miFyU7D19OX3_-Kd-36" style="edgeStyle=orthogonalEdgeStyle;rounded=0;orthogonalLoop=1;jettySize=auto;html=1;entryX=0.5;entryY=1;entryDx=0;entryDy=0;fillColor=#e51400;strokeColor=#FF0000;exitX=0.5;exitY=1;exitDx=0;exitDy=0;" parent="1" source="i0e7miFyU7D19OX3_-Kd-34" target="i0e7miFyU7D19OX3_-Kd-35" edge="1">
          <mxGeometry relative="1" as="geometry">
            <mxPoint x="580" y="665" as="sourcePoint" />
            <mxPoint x="610" y="665" as="targetPoint" />
            <Array as="points">
              <mxPoint x="575" y="695" />
              <mxPoint x="605" y="695" />
            </Array>
          </mxGeometry>
        </mxCell>
        <mxCell id="i0e7miFyU7D19OX3_-Kd-37" value="c" style="rounded=1;whiteSpace=wrap;html=1;" parent="1" vertex="1">
          <mxGeometry x="620" y="625" width="30" height="40" as="geometry" />
        </mxCell>
      </root>
    </mxGraphModel>
  </diagram>
  <diagram id="kUROZYPTAlEzCA3z8jXU" name="第 9 页">
    <mxGraphModel dx="1036" dy="606" grid="1" gridSize="10" guides="1" tooltips="1" connect="1" arrows="1" fold="1" page="1" pageScale="1" pageWidth="827" pageHeight="1169" math="0" shadow="0">
      <root>
        <mxCell id="0" />
        <mxCell id="1" parent="0" />
        <mxCell id="BlN7BV884lUM4GJzGiA--1" value="" style="rounded=0;whiteSpace=wrap;html=1;" parent="1" vertex="1">
          <mxGeometry x="140" y="180" width="230" height="30" as="geometry" />
        </mxCell>
        <mxCell id="BlN7BV884lUM4GJzGiA--2" value="" style="rounded=0;whiteSpace=wrap;html=1;" parent="1" vertex="1">
          <mxGeometry x="140" y="340" width="600" height="60" as="geometry" />
        </mxCell>
        <mxCell id="BlN7BV884lUM4GJzGiA--3" value="" style="rounded=0;whiteSpace=wrap;html=1;" parent="1" vertex="1">
          <mxGeometry x="140" y="180" width="20" height="30" as="geometry" />
        </mxCell>
        <mxCell id="BlN7BV884lUM4GJzGiA--4" value="索引" style="text;html=1;strokeColor=none;fillColor=none;align=center;verticalAlign=middle;whiteSpace=wrap;rounded=0;" parent="1" vertex="1">
          <mxGeometry x="60" y="150" width="60" height="30" as="geometry" />
        </mxCell>
        <mxCell id="BlN7BV884lUM4GJzGiA--5" value="0" style="text;html=1;strokeColor=none;fillColor=none;align=center;verticalAlign=middle;whiteSpace=wrap;rounded=0;" parent="1" vertex="1">
          <mxGeometry x="140" y="150" width="20" height="30" as="geometry" />
        </mxCell>
        <mxCell id="BlN7BV884lUM4GJzGiA--6" value="1" style="text;html=1;strokeColor=none;fillColor=none;align=center;verticalAlign=middle;whiteSpace=wrap;rounded=0;" parent="1" vertex="1">
          <mxGeometry x="160" y="150" width="20" height="30" as="geometry" />
        </mxCell>
        <mxCell id="BlN7BV884lUM4GJzGiA--7" value="2" style="text;html=1;strokeColor=none;fillColor=none;align=center;verticalAlign=middle;whiteSpace=wrap;rounded=0;" parent="1" vertex="1">
          <mxGeometry x="180" y="150" width="20" height="30" as="geometry" />
        </mxCell>
        <mxCell id="BlN7BV884lUM4GJzGiA--8" value="3" style="text;html=1;strokeColor=none;fillColor=none;align=center;verticalAlign=middle;whiteSpace=wrap;rounded=0;" parent="1" vertex="1">
          <mxGeometry x="200" y="150" width="20" height="30" as="geometry" />
        </mxCell>
        <mxCell id="BlN7BV884lUM4GJzGiA--9" value="" style="rounded=0;whiteSpace=wrap;html=1;" parent="1" vertex="1">
          <mxGeometry x="160" y="180" width="20" height="30" as="geometry" />
        </mxCell>
        <mxCell id="BlN7BV884lUM4GJzGiA--10" value="" style="rounded=0;whiteSpace=wrap;html=1;" parent="1" vertex="1">
          <mxGeometry x="180" y="180" width="20" height="30" as="geometry" />
        </mxCell>
        <mxCell id="BlN7BV884lUM4GJzGiA--11" value="" style="rounded=0;whiteSpace=wrap;html=1;" parent="1" vertex="1">
          <mxGeometry x="200" y="180" width="20" height="30" as="geometry" />
        </mxCell>
        <mxCell id="BlN7BV884lUM4GJzGiA--12" value="..." style="rounded=0;whiteSpace=wrap;html=1;" parent="1" vertex="1">
          <mxGeometry x="220" y="180" width="110" height="30" as="geometry" />
        </mxCell>
        <mxCell id="BlN7BV884lUM4GJzGiA--13" value="" style="rounded=0;whiteSpace=wrap;html=1;" parent="1" vertex="1">
          <mxGeometry x="350" y="180" width="20" height="30" as="geometry" />
        </mxCell>
        <mxCell id="BlN7BV884lUM4GJzGiA--14" value="" style="rounded=0;whiteSpace=wrap;html=1;" parent="1" vertex="1">
          <mxGeometry x="330" y="180" width="20" height="30" as="geometry" />
        </mxCell>
        <mxCell id="BlN7BV884lUM4GJzGiA--15" value="..." style="text;html=1;strokeColor=none;fillColor=none;align=center;verticalAlign=middle;whiteSpace=wrap;rounded=0;" parent="1" vertex="1">
          <mxGeometry x="220" y="150" width="110" height="30" as="geometry" />
        </mxCell>
        <mxCell id="BlN7BV884lUM4GJzGiA--16" value="2097151" style="text;html=1;strokeColor=none;fillColor=none;align=center;verticalAlign=middle;whiteSpace=wrap;rounded=0;" parent="1" vertex="1">
          <mxGeometry x="300" y="150" width="50" height="30" as="geometry" />
        </mxCell>
        <mxCell id="BlN7BV884lUM4GJzGiA--17" value="2097152" style="text;html=1;strokeColor=none;fillColor=none;align=center;verticalAlign=middle;whiteSpace=wrap;rounded=0;" parent="1" vertex="1">
          <mxGeometry x="350" y="150" width="50" height="30" as="geometry" />
        </mxCell>
        <mxCell id="BlN7BV884lUM4GJzGiA--18" value="卡表" style="text;html=1;strokeColor=none;fillColor=none;align=center;verticalAlign=middle;whiteSpace=wrap;rounded=0;" parent="1" vertex="1">
          <mxGeometry x="60" y="180" width="60" height="30" as="geometry" />
        </mxCell>
        <mxCell id="BlN7BV884lUM4GJzGiA--19" value="Java堆" style="text;html=1;strokeColor=none;fillColor=none;align=center;verticalAlign=middle;whiteSpace=wrap;rounded=0;" parent="1" vertex="1">
          <mxGeometry x="60" y="355" width="60" height="30" as="geometry" />
        </mxCell>
        <mxCell id="BlN7BV884lUM4GJzGiA--21" value="" style="rounded=0;whiteSpace=wrap;html=1;fillColor=#ffe6cc;strokeColor=#d79b00;" parent="1" vertex="1">
          <mxGeometry x="140" y="340" width="160" height="60" as="geometry" />
        </mxCell>
        <mxCell id="BlN7BV884lUM4GJzGiA--20" value="" style="rounded=0;whiteSpace=wrap;html=1;" parent="1" vertex="1">
          <mxGeometry x="130" y="340" width="60" height="60" as="geometry" />
        </mxCell>
        <mxCell id="BlN7BV884lUM4GJzGiA--22" value="Region1" style="text;html=1;strokeColor=none;fillColor=none;align=center;verticalAlign=middle;whiteSpace=wrap;rounded=0;" parent="1" vertex="1">
          <mxGeometry x="230" y="355" width="60" height="30" as="geometry" />
        </mxCell>
        <mxCell id="BlN7BV884lUM4GJzGiA--23" value="Region2" style="rounded=0;whiteSpace=wrap;html=1;fillColor=#ffe6cc;strokeColor=#d79b00;" parent="1" vertex="1">
          <mxGeometry x="300" y="340" width="160" height="60" as="geometry" />
        </mxCell>
        <mxCell id="BlN7BV884lUM4GJzGiA--24" value="..." style="rounded=0;whiteSpace=wrap;html=1;fillColor=#ffe6cc;strokeColor=#d79b00;" parent="1" vertex="1">
          <mxGeometry x="460" y="340" width="290" height="60" as="geometry" />
        </mxCell>
        <mxCell id="BlN7BV884lUM4GJzGiA--25" value="" style="endArrow=none;html=1;rounded=0;exitX=0;exitY=0;exitDx=0;exitDy=0;dashed=1;" parent="1" source="BlN7BV884lUM4GJzGiA--20" edge="1">
          <mxGeometry width="50" height="50" relative="1" as="geometry">
            <mxPoint x="90" y="260" as="sourcePoint" />
            <mxPoint x="140" y="210" as="targetPoint" />
          </mxGeometry>
        </mxCell>
        <mxCell id="BlN7BV884lUM4GJzGiA--26" value="" style="endArrow=none;html=1;rounded=0;exitX=1;exitY=0;exitDx=0;exitDy=0;dashed=1;" parent="1" source="BlN7BV884lUM4GJzGiA--20" edge="1">
          <mxGeometry width="50" height="50" relative="1" as="geometry">
            <mxPoint x="110" y="260" as="sourcePoint" />
            <mxPoint x="160" y="210" as="targetPoint" />
          </mxGeometry>
        </mxCell>
        <mxCell id="BlN7BV884lUM4GJzGiA--27" value="512B" style="text;html=1;strokeColor=none;fillColor=none;align=center;verticalAlign=middle;whiteSpace=wrap;rounded=0;" parent="1" vertex="1">
          <mxGeometry x="130" y="410" width="60" height="30" as="geometry" />
        </mxCell>
        <mxCell id="BlN7BV884lUM4GJzGiA--28" value="1B" style="text;html=1;strokeColor=none;fillColor=none;align=center;verticalAlign=middle;whiteSpace=wrap;rounded=0;" parent="1" vertex="1">
          <mxGeometry x="135" y="220" width="30" height="30" as="geometry" />
        </mxCell>
        <mxCell id="BlN7BV884lUM4GJzGiA--29" value="1GB" style="text;html=1;strokeColor=none;fillColor=none;align=center;verticalAlign=middle;whiteSpace=wrap;rounded=0;" parent="1" vertex="1">
          <mxGeometry x="700" y="310" width="60" height="30" as="geometry" />
        </mxCell>
        <mxCell id="BlN7BV884lUM4GJzGiA--30" value="2MB" style="text;html=1;strokeColor=none;fillColor=none;align=center;verticalAlign=middle;whiteSpace=wrap;rounded=0;" parent="1" vertex="1">
          <mxGeometry x="330" y="220" width="60" height="30" as="geometry" />
        </mxCell>
      </root>
    </mxGraphModel>
  </diagram>
  <diagram id="U30WFGsiBV-aZ0mMZUI1" name="第 10 页">
    <mxGraphModel dx="1036" dy="606" grid="1" gridSize="10" guides="1" tooltips="1" connect="1" arrows="1" fold="1" page="1" pageScale="1" pageWidth="827" pageHeight="1169" math="0" shadow="0">
      <root>
        <mxCell id="0" />
        <mxCell id="1" parent="0" />
        <mxCell id="RHNBFfmXrk5GfQPQTmIy-11" value="" style="edgeStyle=orthogonalEdgeStyle;rounded=0;orthogonalLoop=1;jettySize=auto;html=1;" parent="1" source="RHNBFfmXrk5GfQPQTmIy-1" target="RHNBFfmXrk5GfQPQTmIy-8" edge="1">
          <mxGeometry relative="1" as="geometry" />
        </mxCell>
        <mxCell id="RHNBFfmXrk5GfQPQTmIy-1" value="Region C" style="rounded=0;whiteSpace=wrap;html=1;" parent="1" vertex="1">
          <mxGeometry x="229" y="325" width="120" height="60" as="geometry" />
        </mxCell>
        <mxCell id="RHNBFfmXrk5GfQPQTmIy-2" value="Region A的记忆集" style="text;html=1;strokeColor=none;fillColor=none;align=center;verticalAlign=middle;whiteSpace=wrap;rounded=0;" parent="1" vertex="1">
          <mxGeometry x="79" y="440" width="110" height="30" as="geometry" />
        </mxCell>
        <mxCell id="RHNBFfmXrk5GfQPQTmIy-18" value="" style="edgeStyle=orthogonalEdgeStyle;rounded=0;orthogonalLoop=1;jettySize=auto;html=1;" parent="1" source="RHNBFfmXrk5GfQPQTmIy-3" target="RHNBFfmXrk5GfQPQTmIy-12" edge="1">
          <mxGeometry relative="1" as="geometry" />
        </mxCell>
        <mxCell id="RHNBFfmXrk5GfQPQTmIy-3" value="Region D" style="rounded=0;whiteSpace=wrap;html=1;" parent="1" vertex="1">
          <mxGeometry x="229" y="425" width="120" height="60" as="geometry" />
        </mxCell>
        <mxCell id="RHNBFfmXrk5GfQPQTmIy-19" value="" style="edgeStyle=orthogonalEdgeStyle;rounded=0;orthogonalLoop=1;jettySize=auto;html=1;" parent="1" source="RHNBFfmXrk5GfQPQTmIy-4" target="RHNBFfmXrk5GfQPQTmIy-15" edge="1">
          <mxGeometry relative="1" as="geometry" />
        </mxCell>
        <mxCell id="RHNBFfmXrk5GfQPQTmIy-4" value="Region B" style="rounded=0;whiteSpace=wrap;html=1;" parent="1" vertex="1">
          <mxGeometry x="229" y="525" width="120" height="60" as="geometry" />
        </mxCell>
        <mxCell id="RHNBFfmXrk5GfQPQTmIy-5" value="key：指向其他Region" style="text;html=1;strokeColor=none;fillColor=none;align=center;verticalAlign=middle;whiteSpace=wrap;rounded=0;" parent="1" vertex="1">
          <mxGeometry x="229" y="265" width="140" height="30" as="geometry" />
        </mxCell>
        <mxCell id="RHNBFfmXrk5GfQPQTmIy-6" value="value：数组中每个元素都是其他Region中的卡片索引" style="text;html=1;strokeColor=none;fillColor=none;align=center;verticalAlign=middle;whiteSpace=wrap;rounded=0;" parent="1" vertex="1">
          <mxGeometry x="449" y="265" width="300" height="30" as="geometry" />
        </mxCell>
        <mxCell id="RHNBFfmXrk5GfQPQTmIy-8" value="6144" style="rounded=0;whiteSpace=wrap;html=1;" parent="1" vertex="1">
          <mxGeometry x="449" y="325" width="70" height="60" as="geometry" />
        </mxCell>
        <mxCell id="RHNBFfmXrk5GfQPQTmIy-9" value="6364" style="rounded=0;whiteSpace=wrap;html=1;" parent="1" vertex="1">
          <mxGeometry x="519" y="325" width="70" height="60" as="geometry" />
        </mxCell>
        <mxCell id="RHNBFfmXrk5GfQPQTmIy-12" value="8199" style="rounded=0;whiteSpace=wrap;html=1;" parent="1" vertex="1">
          <mxGeometry x="449" y="425" width="70" height="60" as="geometry" />
        </mxCell>
        <mxCell id="RHNBFfmXrk5GfQPQTmIy-14" value="6932" style="rounded=0;whiteSpace=wrap;html=1;" parent="1" vertex="1">
          <mxGeometry x="589" y="325" width="70" height="60" as="geometry" />
        </mxCell>
        <mxCell id="RHNBFfmXrk5GfQPQTmIy-15" value="2048" style="rounded=0;whiteSpace=wrap;html=1;" parent="1" vertex="1">
          <mxGeometry x="449" y="525" width="70" height="60" as="geometry" />
        </mxCell>
        <mxCell id="RHNBFfmXrk5GfQPQTmIy-20" value="" style="rounded=0;whiteSpace=wrap;html=1;fillColor=#ffe6cc;strokeColor=#d79b00;" parent="1" vertex="1">
          <mxGeometry x="230" y="660" width="550" height="60" as="geometry" />
        </mxCell>
        <mxCell id="RHNBFfmXrk5GfQPQTmIy-21" value="" style="rounded=0;whiteSpace=wrap;html=1;fillColor=#ffe6cc;strokeColor=#d79b00;" parent="1" vertex="1">
          <mxGeometry x="230" y="880" width="550" height="60" as="geometry" />
        </mxCell>
        <mxCell id="RHNBFfmXrk5GfQPQTmIy-22" value="a" style="rounded=1;whiteSpace=wrap;html=1;" parent="1" vertex="1">
          <mxGeometry x="374" y="660" width="40" height="60" as="geometry" />
        </mxCell>
        <mxCell id="RHNBFfmXrk5GfQPQTmIy-23" value="b" style="rounded=1;whiteSpace=wrap;html=1;" parent="1" vertex="1">
          <mxGeometry x="540" y="660" width="40" height="60" as="geometry" />
        </mxCell>
        <mxCell id="RHNBFfmXrk5GfQPQTmIy-25" value="Region A" style="text;html=1;strokeColor=none;fillColor=none;align=center;verticalAlign=middle;whiteSpace=wrap;rounded=0;" parent="1" vertex="1">
          <mxGeometry x="130" y="680" width="60" height="30" as="geometry" />
        </mxCell>
        <mxCell id="RHNBFfmXrk5GfQPQTmIy-26" value="Region C" style="text;html=1;strokeColor=none;fillColor=none;align=center;verticalAlign=middle;whiteSpace=wrap;rounded=0;" parent="1" vertex="1">
          <mxGeometry x="130" y="895" width="60" height="30" as="geometry" />
        </mxCell>
        <mxCell id="RHNBFfmXrk5GfQPQTmIy-30" style="rounded=0;orthogonalLoop=1;jettySize=auto;html=1;entryX=0.5;entryY=1;entryDx=0;entryDy=0;strokeColor=#FF0000;" parent="1" source="RHNBFfmXrk5GfQPQTmIy-27" target="RHNBFfmXrk5GfQPQTmIy-22" edge="1">
          <mxGeometry relative="1" as="geometry" />
        </mxCell>
        <mxCell id="RHNBFfmXrk5GfQPQTmIy-31" style="rounded=0;orthogonalLoop=1;jettySize=auto;html=1;exitX=0.5;exitY=0;exitDx=0;exitDy=0;entryX=0.5;entryY=1;entryDx=0;entryDy=0;strokeColor=#FF0000;" parent="1" source="RHNBFfmXrk5GfQPQTmIy-28" target="RHNBFfmXrk5GfQPQTmIy-23" edge="1">
          <mxGeometry relative="1" as="geometry" />
        </mxCell>
        <mxCell id="RHNBFfmXrk5GfQPQTmIy-32" style="rounded=0;orthogonalLoop=1;jettySize=auto;html=1;entryX=0.75;entryY=1;entryDx=0;entryDy=0;strokeColor=#FF0000;" parent="1" source="RHNBFfmXrk5GfQPQTmIy-29" target="RHNBFfmXrk5GfQPQTmIy-23" edge="1">
          <mxGeometry relative="1" as="geometry">
            <mxPoint x="560" y="720" as="targetPoint" />
          </mxGeometry>
        </mxCell>
        <mxCell id="AOrMhUT8ltwddNTpT0iJ-6" value="..." style="rounded=0;whiteSpace=wrap;html=1;" parent="1" vertex="1">
          <mxGeometry x="320" y="1040" width="50" height="30" as="geometry" />
        </mxCell>
        <mxCell id="AOrMhUT8ltwddNTpT0iJ-25" value="" style="rounded=0;whiteSpace=wrap;html=1;" parent="1" vertex="1">
          <mxGeometry x="310" y="880" width="90" height="60" as="geometry" />
        </mxCell>
        <mxCell id="AOrMhUT8ltwddNTpT0iJ-8" value="6144" style="rounded=0;whiteSpace=wrap;html=1;fillColor=#CCCCCC;fontColor=#333333;strokeColor=#666666;" parent="1" vertex="1">
          <mxGeometry x="370" y="1040" width="30" height="30" as="geometry" />
        </mxCell>
        <mxCell id="AOrMhUT8ltwddNTpT0iJ-11" value="Region C的卡表" style="text;html=1;strokeColor=none;fillColor=none;align=center;verticalAlign=middle;whiteSpace=wrap;rounded=0;" parent="1" vertex="1">
          <mxGeometry x="90" y="1040" width="100" height="30" as="geometry" />
        </mxCell>
        <mxCell id="AOrMhUT8ltwddNTpT0iJ-13" value="0" style="rounded=0;whiteSpace=wrap;html=1;" parent="1" vertex="1">
          <mxGeometry x="230" y="1040" width="30" height="30" as="geometry" />
        </mxCell>
        <mxCell id="AOrMhUT8ltwddNTpT0iJ-14" value="1" style="rounded=0;whiteSpace=wrap;html=1;" parent="1" vertex="1">
          <mxGeometry x="260" y="1040" width="30" height="30" as="geometry" />
        </mxCell>
        <mxCell id="AOrMhUT8ltwddNTpT0iJ-15" value="2" style="rounded=0;whiteSpace=wrap;html=1;" parent="1" vertex="1">
          <mxGeometry x="290" y="1040" width="30" height="30" as="geometry" />
        </mxCell>
        <mxCell id="AOrMhUT8ltwddNTpT0iJ-17" value="引用" style="text;html=1;strokeColor=none;fillColor=none;align=center;verticalAlign=middle;whiteSpace=wrap;rounded=0;" parent="1" vertex="1">
          <mxGeometry x="384" y="780" width="60" height="30" as="geometry" />
        </mxCell>
        <mxCell id="AOrMhUT8ltwddNTpT0iJ-18" value="..." style="rounded=0;whiteSpace=wrap;html=1;" parent="1" vertex="1">
          <mxGeometry x="400" y="1040" width="50" height="30" as="geometry" />
        </mxCell>
        <mxCell id="AOrMhUT8ltwddNTpT0iJ-19" value="6144" style="rounded=0;whiteSpace=wrap;html=1;fillColor=#CCCCCC;" parent="1" vertex="1">
          <mxGeometry x="450" y="1040" width="30" height="30" as="geometry" />
        </mxCell>
        <mxCell id="AOrMhUT8ltwddNTpT0iJ-20" value="..." style="rounded=0;whiteSpace=wrap;html=1;" parent="1" vertex="1">
          <mxGeometry x="480" y="1040" width="50" height="30" as="geometry" />
        </mxCell>
        <mxCell id="AOrMhUT8ltwddNTpT0iJ-21" value="6932" style="rounded=0;whiteSpace=wrap;html=1;fillColor=#CCCCCC;" parent="1" vertex="1">
          <mxGeometry x="530" y="1040" width="30" height="30" as="geometry" />
        </mxCell>
        <mxCell id="AOrMhUT8ltwddNTpT0iJ-22" value="" style="endArrow=none;dashed=1;html=1;rounded=0;entryX=0;entryY=1;entryDx=0;entryDy=0;" parent="1" target="AOrMhUT8ltwddNTpT0iJ-25" edge="1">
          <mxGeometry width="50" height="50" relative="1" as="geometry">
            <mxPoint x="370" y="1040" as="sourcePoint" />
            <mxPoint x="420" y="990" as="targetPoint" />
          </mxGeometry>
        </mxCell>
        <mxCell id="AOrMhUT8ltwddNTpT0iJ-23" value="" style="endArrow=none;dashed=1;html=1;rounded=0;entryX=1;entryY=1;entryDx=0;entryDy=0;" parent="1" target="AOrMhUT8ltwddNTpT0iJ-25" edge="1">
          <mxGeometry width="50" height="50" relative="1" as="geometry">
            <mxPoint x="400" y="1040" as="sourcePoint" />
            <mxPoint x="450" y="990" as="targetPoint" />
          </mxGeometry>
        </mxCell>
        <mxCell id="RHNBFfmXrk5GfQPQTmIy-27" value="h" style="rounded=1;whiteSpace=wrap;html=1;" parent="1" vertex="1">
          <mxGeometry x="344" y="880" width="40" height="60" as="geometry" />
        </mxCell>
        <mxCell id="AOrMhUT8ltwddNTpT0iJ-26" value="512B" style="text;html=1;strokeColor=none;fillColor=none;align=center;verticalAlign=middle;whiteSpace=wrap;rounded=0;" parent="1" vertex="1">
          <mxGeometry x="334" y="950" width="60" height="30" as="geometry" />
        </mxCell>
        <mxCell id="AOrMhUT8ltwddNTpT0iJ-27" value="" style="rounded=0;whiteSpace=wrap;html=1;" parent="1" vertex="1">
          <mxGeometry x="490" y="880" width="90" height="60" as="geometry" />
        </mxCell>
        <mxCell id="RHNBFfmXrk5GfQPQTmIy-28" value="i" style="rounded=1;whiteSpace=wrap;html=1;" parent="1" vertex="1">
          <mxGeometry x="515" y="880" width="40" height="60" as="geometry" />
        </mxCell>
        <mxCell id="AOrMhUT8ltwddNTpT0iJ-28" value="" style="rounded=0;whiteSpace=wrap;html=1;" parent="1" vertex="1">
          <mxGeometry x="655" y="880" width="85" height="60" as="geometry" />
        </mxCell>
        <mxCell id="RHNBFfmXrk5GfQPQTmIy-29" value="j" style="rounded=1;whiteSpace=wrap;html=1;" parent="1" vertex="1">
          <mxGeometry x="660" y="880" width="40" height="60" as="geometry" />
        </mxCell>
        <mxCell id="AOrMhUT8ltwddNTpT0iJ-29" value="512B" style="text;html=1;strokeColor=none;fillColor=none;align=center;verticalAlign=middle;whiteSpace=wrap;rounded=0;" parent="1" vertex="1">
          <mxGeometry x="480" y="950" width="60" height="30" as="geometry" />
        </mxCell>
        <mxCell id="AOrMhUT8ltwddNTpT0iJ-30" value="512B" style="text;html=1;strokeColor=none;fillColor=none;align=center;verticalAlign=middle;whiteSpace=wrap;rounded=0;" parent="1" vertex="1">
          <mxGeometry x="630" y="950" width="60" height="30" as="geometry" />
        </mxCell>
        <mxCell id="AOrMhUT8ltwddNTpT0iJ-32" value="" style="endArrow=none;dashed=1;html=1;rounded=0;exitX=0;exitY=0;exitDx=0;exitDy=0;" parent="1" source="AOrMhUT8ltwddNTpT0iJ-19" edge="1">
          <mxGeometry width="50" height="50" relative="1" as="geometry">
            <mxPoint x="440" y="990" as="sourcePoint" />
            <mxPoint x="490" y="940" as="targetPoint" />
          </mxGeometry>
        </mxCell>
        <mxCell id="AOrMhUT8ltwddNTpT0iJ-34" value="" style="endArrow=none;dashed=1;html=1;rounded=0;exitX=0;exitY=0;exitDx=0;exitDy=0;entryX=1;entryY=1;entryDx=0;entryDy=0;" parent="1" source="AOrMhUT8ltwddNTpT0iJ-20" target="AOrMhUT8ltwddNTpT0iJ-27" edge="1">
          <mxGeometry width="50" height="50" relative="1" as="geometry">
            <mxPoint x="510" y="990" as="sourcePoint" />
            <mxPoint x="560" y="940" as="targetPoint" />
          </mxGeometry>
        </mxCell>
        <mxCell id="AOrMhUT8ltwddNTpT0iJ-35" value="" style="endArrow=none;dashed=1;html=1;rounded=0;exitX=0;exitY=0;exitDx=0;exitDy=0;entryX=0;entryY=1;entryDx=0;entryDy=0;" parent="1" source="AOrMhUT8ltwddNTpT0iJ-21" target="AOrMhUT8ltwddNTpT0iJ-28" edge="1">
          <mxGeometry width="50" height="50" relative="1" as="geometry">
            <mxPoint x="525" y="1040" as="sourcePoint" />
            <mxPoint x="595" y="940" as="targetPoint" />
          </mxGeometry>
        </mxCell>
        <mxCell id="AOrMhUT8ltwddNTpT0iJ-36" value="" style="endArrow=none;dashed=1;html=1;rounded=0;exitX=1;exitY=0;exitDx=0;exitDy=0;entryX=1;entryY=1;entryDx=0;entryDy=0;" parent="1" source="AOrMhUT8ltwddNTpT0iJ-21" target="AOrMhUT8ltwddNTpT0iJ-28" edge="1">
          <mxGeometry width="50" height="50" relative="1" as="geometry">
            <mxPoint x="616" y="990" as="sourcePoint" />
            <mxPoint x="666" y="940" as="targetPoint" />
          </mxGeometry>
        </mxCell>
        <mxCell id="AOrMhUT8ltwddNTpT0iJ-37" value="1B" style="text;html=1;strokeColor=none;fillColor=none;align=center;verticalAlign=middle;whiteSpace=wrap;rounded=0;" parent="1" vertex="1">
          <mxGeometry x="354" y="1080" width="60" height="30" as="geometry" />
        </mxCell>
        <mxCell id="AOrMhUT8ltwddNTpT0iJ-38" value="1B" style="text;html=1;strokeColor=none;fillColor=none;align=center;verticalAlign=middle;whiteSpace=wrap;rounded=0;" parent="1" vertex="1">
          <mxGeometry x="435" y="1080" width="60" height="30" as="geometry" />
        </mxCell>
        <mxCell id="AOrMhUT8ltwddNTpT0iJ-39" value="1B" style="text;html=1;strokeColor=none;fillColor=none;align=center;verticalAlign=middle;whiteSpace=wrap;rounded=0;" parent="1" vertex="1">
          <mxGeometry x="515" y="1080" width="60" height="30" as="geometry" />
        </mxCell>
      </root>
    </mxGraphModel>
  </diagram>
  <diagram id="00ciO6vXKpv3T4A9NdCP" name="第 11 页">
    <mxGraphModel dx="1036" dy="606" grid="1" gridSize="10" guides="1" tooltips="1" connect="1" arrows="1" fold="1" page="1" pageScale="1" pageWidth="827" pageHeight="1169" math="0" shadow="0">
      <root>
        <mxCell id="0" />
        <mxCell id="1" parent="0" />
        <mxCell id="P-fXH5iYicO-QbySVR_r-1" value="" style="rounded=0;whiteSpace=wrap;html=1;" vertex="1" parent="1">
          <mxGeometry x="270" y="180" width="220" height="60" as="geometry" />
        </mxCell>
        <mxCell id="P-fXH5iYicO-QbySVR_r-2" value="回收集中的某个Region" style="text;html=1;strokeColor=none;fillColor=none;align=center;verticalAlign=middle;whiteSpace=wrap;rounded=0;" vertex="1" parent="1">
          <mxGeometry x="100" y="195" width="140" height="30" as="geometry" />
        </mxCell>
        <mxCell id="P-fXH5iYicO-QbySVR_r-9" style="edgeStyle=orthogonalEdgeStyle;rounded=0;orthogonalLoop=1;jettySize=auto;html=1;entryX=0.162;entryY=-0.023;entryDx=0;entryDy=0;entryPerimeter=0;" edge="1" parent="1" target="P-fXH5iYicO-QbySVR_r-5">
          <mxGeometry relative="1" as="geometry">
            <mxPoint x="305" y="235" as="sourcePoint" />
          </mxGeometry>
        </mxCell>
        <mxCell id="P-fXH5iYicO-QbySVR_r-5" value="" style="rounded=0;whiteSpace=wrap;html=1;" vertex="1" parent="1">
          <mxGeometry x="270" y="330" width="220" height="60" as="geometry" />
        </mxCell>
        <mxCell id="P-fXH5iYicO-QbySVR_r-6" value="空闲Region" style="text;html=1;strokeColor=none;fillColor=none;align=center;verticalAlign=middle;whiteSpace=wrap;rounded=0;" vertex="1" parent="1">
          <mxGeometry x="160" y="345" width="80" height="30" as="geometry" />
        </mxCell>
        <mxCell id="P-fXH5iYicO-QbySVR_r-8" value="转移到空闲Region" style="text;html=1;strokeColor=none;fillColor=none;align=center;verticalAlign=middle;whiteSpace=wrap;rounded=0;" vertex="1" parent="1">
          <mxGeometry x="310" y="270" width="110" height="30" as="geometry" />
        </mxCell>
        <mxCell id="qSppoB6P1zH9RS2byKu1-1" value="a" style="rounded=1;whiteSpace=wrap;html=1;fillColor=#CCCCCC;" vertex="1" parent="1">
          <mxGeometry x="280" y="185" width="70" height="50" as="geometry" />
        </mxCell>
      </root>
    </mxGraphModel>
  </diagram>
  <diagram id="ZuL974h5SSLs41s2mSOd" name="第 12 页">
    <mxGraphModel dx="1036" dy="606" grid="1" gridSize="10" guides="1" tooltips="1" connect="1" arrows="1" fold="1" page="1" pageScale="1" pageWidth="827" pageHeight="1169" math="0" shadow="0">
      <root>
        <mxCell id="0" />
        <mxCell id="1" parent="0" />
        <mxCell id="hCgsPtG_nNMczYC19PCs-1" value="" style="rounded=0;whiteSpace=wrap;html=1;" vertex="1" parent="1">
          <mxGeometry x="270" y="180" width="220" height="60" as="geometry" />
        </mxCell>
        <mxCell id="hCgsPtG_nNMczYC19PCs-2" value="回收集中的某个Region" style="text;html=1;strokeColor=none;fillColor=none;align=center;verticalAlign=middle;whiteSpace=wrap;rounded=0;" vertex="1" parent="1">
          <mxGeometry x="100" y="195" width="140" height="30" as="geometry" />
        </mxCell>
        <mxCell id="hCgsPtG_nNMczYC19PCs-4" value="forwarding指针" style="rounded=1;whiteSpace=wrap;html=1;" vertex="1" parent="1">
          <mxGeometry x="280" y="185" width="70" height="50" as="geometry" />
        </mxCell>
        <mxCell id="hCgsPtG_nNMczYC19PCs-5" value="" style="rounded=0;whiteSpace=wrap;html=1;" vertex="1" parent="1">
          <mxGeometry x="270" y="330" width="220" height="60" as="geometry" />
        </mxCell>
        <mxCell id="hCgsPtG_nNMczYC19PCs-6" value="空闲Region" style="text;html=1;strokeColor=none;fillColor=none;align=center;verticalAlign=middle;whiteSpace=wrap;rounded=0;" vertex="1" parent="1">
          <mxGeometry x="160" y="345" width="80" height="30" as="geometry" />
        </mxCell>
        <mxCell id="hCgsPtG_nNMczYC19PCs-9" value="a&#39;" style="rounded=1;whiteSpace=wrap;html=1;fillColor=#CCCCCC;" vertex="1" parent="1">
          <mxGeometry x="280" y="335" width="70" height="50" as="geometry" />
        </mxCell>
      </root>
    </mxGraphModel>
  </diagram>
  <diagram id="ABKtDZ0W1bu9lnEfFgGI" name="第 13 页">
    <mxGraphModel dx="1036" dy="606" grid="1" gridSize="10" guides="1" tooltips="1" connect="1" arrows="1" fold="1" page="1" pageScale="1" pageWidth="827" pageHeight="1169" math="0" shadow="0">
      <root>
        <mxCell id="0" />
        <mxCell id="1" parent="0" />
        <mxCell id="PdLcHIsLT9nLz_qZ7bVw-1" value="" style="rounded=0;whiteSpace=wrap;html=1;" vertex="1" parent="1">
          <mxGeometry x="270" y="180" width="220" height="60" as="geometry" />
        </mxCell>
        <mxCell id="PdLcHIsLT9nLz_qZ7bVw-2" value="回收集中的某个Region1" style="text;html=1;strokeColor=none;fillColor=none;align=center;verticalAlign=middle;whiteSpace=wrap;rounded=0;" vertex="1" parent="1">
          <mxGeometry x="100" y="195" width="140" height="30" as="geometry" />
        </mxCell>
        <mxCell id="PdLcHIsLT9nLz_qZ7bVw-3" value="forwarding指针" style="rounded=1;whiteSpace=wrap;html=1;" vertex="1" parent="1">
          <mxGeometry x="280" y="185" width="70" height="50" as="geometry" />
        </mxCell>
        <mxCell id="PdLcHIsLT9nLz_qZ7bVw-4" value="" style="rounded=0;whiteSpace=wrap;html=1;" vertex="1" parent="1">
          <mxGeometry x="270" y="330" width="220" height="60" as="geometry" />
        </mxCell>
        <mxCell id="PdLcHIsLT9nLz_qZ7bVw-5" value="空闲Region" style="text;html=1;strokeColor=none;fillColor=none;align=center;verticalAlign=middle;whiteSpace=wrap;rounded=0;" vertex="1" parent="1">
          <mxGeometry x="160" y="345" width="80" height="30" as="geometry" />
        </mxCell>
        <mxCell id="PdLcHIsLT9nLz_qZ7bVw-6" value="a&#39;" style="rounded=1;whiteSpace=wrap;html=1;fillColor=#CCCCCC;" vertex="1" parent="1">
          <mxGeometry x="280" y="335" width="70" height="50" as="geometry" />
        </mxCell>
        <mxCell id="PdLcHIsLT9nLz_qZ7bVw-7" value="..." style="rounded=0;whiteSpace=wrap;html=1;" vertex="1" parent="1">
          <mxGeometry x="270" y="480" width="60" height="60" as="geometry" />
        </mxCell>
        <mxCell id="PdLcHIsLT9nLz_qZ7bVw-8" value="转移队列" style="text;html=1;strokeColor=none;fillColor=none;align=center;verticalAlign=middle;whiteSpace=wrap;rounded=0;" vertex="1" parent="1">
          <mxGeometry x="180" y="495" width="60" height="30" as="geometry" />
        </mxCell>
        <mxCell id="PdLcHIsLT9nLz_qZ7bVw-9" value="a&#39;.field1" style="rounded=0;whiteSpace=wrap;html=1;" vertex="1" parent="1">
          <mxGeometry x="330" y="480" width="80" height="60" as="geometry" />
        </mxCell>
        <mxCell id="PdLcHIsLT9nLz_qZ7bVw-10" value="..." style="rounded=0;whiteSpace=wrap;html=1;" vertex="1" parent="1">
          <mxGeometry x="410" y="480" width="170" height="60" as="geometry" />
        </mxCell>
        <mxCell id="PdLcHIsLT9nLz_qZ7bVw-12" value="" style="rounded=0;whiteSpace=wrap;html=1;" vertex="1" parent="1">
          <mxGeometry x="270" y="70" width="220" height="60" as="geometry" />
        </mxCell>
        <mxCell id="PdLcHIsLT9nLz_qZ7bVw-13" value="b" style="rounded=1;whiteSpace=wrap;html=1;fillColor=#CCCCCC;" vertex="1" parent="1">
          <mxGeometry x="280" y="75" width="70" height="50" as="geometry" />
        </mxCell>
        <mxCell id="PdLcHIsLT9nLz_qZ7bVw-14" value="回收集中的Region2" style="text;html=1;strokeColor=none;fillColor=none;align=center;verticalAlign=middle;whiteSpace=wrap;rounded=0;" vertex="1" parent="1">
          <mxGeometry x="100" y="85" width="140" height="30" as="geometry" />
        </mxCell>
        <mxCell id="PdLcHIsLT9nLz_qZ7bVw-15" style="edgeStyle=orthogonalEdgeStyle;rounded=0;orthogonalLoop=1;jettySize=auto;html=1;entryX=1;entryY=0.5;entryDx=0;entryDy=0;strokeColor=#FF0000;" edge="1" parent="1" source="PdLcHIsLT9nLz_qZ7bVw-6" target="PdLcHIsLT9nLz_qZ7bVw-13">
          <mxGeometry relative="1" as="geometry">
            <Array as="points">
              <mxPoint x="560" y="360" />
              <mxPoint x="560" y="100" />
            </Array>
          </mxGeometry>
        </mxCell>
        <mxCell id="PdLcHIsLT9nLz_qZ7bVw-16" value="引用" style="text;html=1;strokeColor=none;fillColor=none;align=center;verticalAlign=middle;whiteSpace=wrap;rounded=0;" vertex="1" parent="1">
          <mxGeometry x="560" y="205" width="60" height="30" as="geometry" />
        </mxCell>
        <mxCell id="PdLcHIsLT9nLz_qZ7bVw-17" value="" style="shape=flexArrow;endArrow=classic;html=1;rounded=0;" edge="1" parent="1">
          <mxGeometry width="50" height="50" relative="1" as="geometry">
            <mxPoint x="330" y="400" as="sourcePoint" />
            <mxPoint x="380" y="470" as="targetPoint" />
          </mxGeometry>
        </mxCell>
        <mxCell id="PdLcHIsLT9nLz_qZ7bVw-18" value="把a&#39;.field1放入转移队列" style="text;html=1;strokeColor=none;fillColor=none;align=center;verticalAlign=middle;whiteSpace=wrap;rounded=0;" vertex="1" parent="1">
          <mxGeometry x="370" y="420" width="146" height="30" as="geometry" />
        </mxCell>
      </root>
    </mxGraphModel>
  </diagram>
  <diagram id="7UCA-HbZm2vC5o7nNLa1" name="第 14 页">
    <mxGraphModel dx="1036" dy="606" grid="1" gridSize="10" guides="1" tooltips="1" connect="1" arrows="1" fold="1" page="1" pageScale="1" pageWidth="827" pageHeight="1169" math="0" shadow="0">
      <root>
        <mxCell id="0" />
        <mxCell id="1" parent="0" />
        <mxCell id="fe8qmJ_-ps2DSvPRdmy9-1" value="" style="rounded=0;whiteSpace=wrap;html=1;" vertex="1" parent="1">
          <mxGeometry x="270" y="180" width="220" height="60" as="geometry" />
        </mxCell>
        <mxCell id="fe8qmJ_-ps2DSvPRdmy9-2" value="回收集中的某个Region A" style="text;html=1;strokeColor=none;fillColor=none;align=center;verticalAlign=middle;whiteSpace=wrap;rounded=0;" vertex="1" parent="1">
          <mxGeometry x="100" y="195" width="140" height="30" as="geometry" />
        </mxCell>
        <mxCell id="fe8qmJ_-ps2DSvPRdmy9-3" value="forwarding指针" style="rounded=1;whiteSpace=wrap;html=1;" vertex="1" parent="1">
          <mxGeometry x="280" y="185" width="70" height="50" as="geometry" />
        </mxCell>
        <mxCell id="fe8qmJ_-ps2DSvPRdmy9-4" value="" style="rounded=0;whiteSpace=wrap;html=1;" vertex="1" parent="1">
          <mxGeometry x="270" y="330" width="220" height="60" as="geometry" />
        </mxCell>
        <mxCell id="fe8qmJ_-ps2DSvPRdmy9-5" value="空闲Region B" style="text;html=1;strokeColor=none;fillColor=none;align=center;verticalAlign=middle;whiteSpace=wrap;rounded=0;" vertex="1" parent="1">
          <mxGeometry x="160" y="345" width="80" height="30" as="geometry" />
        </mxCell>
        <mxCell id="fe8qmJ_-ps2DSvPRdmy9-6" value="a&#39;" style="rounded=1;whiteSpace=wrap;html=1;fillColor=#CCCCCC;" vertex="1" parent="1">
          <mxGeometry x="280" y="335" width="70" height="50" as="geometry" />
        </mxCell>
        <mxCell id="fe8qmJ_-ps2DSvPRdmy9-7" value="" style="rounded=0;whiteSpace=wrap;html=1;" vertex="1" parent="1">
          <mxGeometry x="270" y="470" width="220" height="60" as="geometry" />
        </mxCell>
        <mxCell id="fe8qmJ_-ps2DSvPRdmy9-8" value="不在回收集中的某个Region C" style="text;html=1;strokeColor=none;fillColor=none;align=center;verticalAlign=middle;whiteSpace=wrap;rounded=0;" vertex="1" parent="1">
          <mxGeometry x="80" y="485" width="170" height="30" as="geometry" />
        </mxCell>
        <mxCell id="fe8qmJ_-ps2DSvPRdmy9-9" value="c" style="rounded=1;whiteSpace=wrap;html=1;fillColor=#CCCCCC;" vertex="1" parent="1">
          <mxGeometry x="280" y="475" width="70" height="50" as="geometry" />
        </mxCell>
        <mxCell id="fe8qmJ_-ps2DSvPRdmy9-10" style="edgeStyle=orthogonalEdgeStyle;rounded=0;orthogonalLoop=1;jettySize=auto;html=1;entryX=1;entryY=0.5;entryDx=0;entryDy=0;strokeColor=#FF0000;" edge="1" parent="1" source="fe8qmJ_-ps2DSvPRdmy9-6" target="fe8qmJ_-ps2DSvPRdmy9-9">
          <mxGeometry relative="1" as="geometry">
            <Array as="points">
              <mxPoint x="570" y="360" />
              <mxPoint x="570" y="500" />
            </Array>
          </mxGeometry>
        </mxCell>
        <mxCell id="fe8qmJ_-ps2DSvPRdmy9-11" value="引用" style="text;html=1;strokeColor=none;fillColor=none;align=center;verticalAlign=middle;whiteSpace=wrap;rounded=0;" vertex="1" parent="1">
          <mxGeometry x="570" y="420" width="60" height="30" as="geometry" />
        </mxCell>
        <mxCell id="N67LSuFCWMqYKjVLBC7o-1" value="Region C的记忆集" style="text;html=1;strokeColor=none;fillColor=none;align=center;verticalAlign=middle;whiteSpace=wrap;rounded=0;" vertex="1" parent="1">
          <mxGeometry x="135" y="600" width="115" height="30" as="geometry" />
        </mxCell>
        <mxCell id="OIGvgmw3r6SF80t_-adn-1" value="" style="edgeStyle=orthogonalEdgeStyle;rounded=0;orthogonalLoop=1;jettySize=auto;html=1;" edge="1" parent="1" source="OIGvgmw3r6SF80t_-adn-2" target="OIGvgmw3r6SF80t_-adn-7">
          <mxGeometry relative="1" as="geometry" />
        </mxCell>
        <mxCell id="OIGvgmw3r6SF80t_-adn-2" value="Region A" style="rounded=0;whiteSpace=wrap;html=1;" vertex="1" parent="1">
          <mxGeometry x="270" y="585" width="120" height="60" as="geometry" />
        </mxCell>
        <mxCell id="OIGvgmw3r6SF80t_-adn-3" value="" style="edgeStyle=orthogonalEdgeStyle;rounded=0;orthogonalLoop=1;jettySize=auto;html=1;" edge="1" parent="1" source="OIGvgmw3r6SF80t_-adn-4" target="OIGvgmw3r6SF80t_-adn-9">
          <mxGeometry relative="1" as="geometry" />
        </mxCell>
        <mxCell id="OIGvgmw3r6SF80t_-adn-4" value="Region D" style="rounded=0;whiteSpace=wrap;html=1;" vertex="1" parent="1">
          <mxGeometry x="270" y="685" width="120" height="60" as="geometry" />
        </mxCell>
        <mxCell id="OIGvgmw3r6SF80t_-adn-5" value="" style="edgeStyle=orthogonalEdgeStyle;rounded=0;orthogonalLoop=1;jettySize=auto;html=1;" edge="1" parent="1" source="OIGvgmw3r6SF80t_-adn-6" target="OIGvgmw3r6SF80t_-adn-11">
          <mxGeometry relative="1" as="geometry" />
        </mxCell>
        <mxCell id="OIGvgmw3r6SF80t_-adn-6" value="Region B" style="rounded=0;whiteSpace=wrap;html=1;" vertex="1" parent="1">
          <mxGeometry x="270" y="785" width="120" height="60" as="geometry" />
        </mxCell>
        <mxCell id="OIGvgmw3r6SF80t_-adn-7" value="..." style="rounded=0;whiteSpace=wrap;html=1;" vertex="1" parent="1">
          <mxGeometry x="490" y="585" width="70" height="60" as="geometry" />
        </mxCell>
        <mxCell id="OIGvgmw3r6SF80t_-adn-8" value="&lt;strike&gt;&lt;font color=&quot;#ff0000&quot;&gt;1024&lt;/font&gt;&lt;/strike&gt;" style="rounded=0;whiteSpace=wrap;html=1;" vertex="1" parent="1">
          <mxGeometry x="560" y="585" width="70" height="60" as="geometry" />
        </mxCell>
        <mxCell id="OIGvgmw3r6SF80t_-adn-9" value="..." style="rounded=0;whiteSpace=wrap;html=1;" vertex="1" parent="1">
          <mxGeometry x="490" y="685" width="70" height="60" as="geometry" />
        </mxCell>
        <mxCell id="OIGvgmw3r6SF80t_-adn-11" value="..." style="rounded=0;whiteSpace=wrap;html=1;" vertex="1" parent="1">
          <mxGeometry x="490" y="785" width="70" height="60" as="geometry" />
        </mxCell>
        <mxCell id="jtZ_L_bH4h1_KUsiU3Mi-2" value="把原来a所在卡页对应的卡片索引Region A的1024&lt;br&gt;替换成a&#39;所在卡页对应的卡片索引Region B的2048" style="text;html=1;strokeColor=none;fillColor=none;align=center;verticalAlign=middle;whiteSpace=wrap;rounded=0;" vertex="1" parent="1">
          <mxGeometry x="690" y="770" width="120" height="30" as="geometry" />
        </mxCell>
        <mxCell id="jtZ_L_bH4h1_KUsiU3Mi-5" value="" style="shape=flexArrow;endArrow=classic;html=1;rounded=0;" edge="1" parent="1">
          <mxGeometry width="50" height="50" relative="1" as="geometry">
            <mxPoint x="740" y="610" as="sourcePoint" />
            <mxPoint x="650" y="820" as="targetPoint" />
          </mxGeometry>
        </mxCell>
        <mxCell id="jtZ_L_bH4h1_KUsiU3Mi-6" value="2048" style="rounded=0;whiteSpace=wrap;html=1;" vertex="1" parent="1">
          <mxGeometry x="560" y="785" width="70" height="60" as="geometry" />
        </mxCell>
        <mxCell id="jtZ_L_bH4h1_KUsiU3Mi-1" value="" style="shape=flexArrow;endArrow=classic;html=1;rounded=0;edgeStyle=elbowEdgeStyle;fillColor=#FFFFFF;" edge="1" parent="1">
          <mxGeometry width="50" height="50" relative="1" as="geometry">
            <mxPoint x="510" y="340" as="sourcePoint" />
            <mxPoint x="640" y="610" as="targetPoint" />
            <Array as="points">
              <mxPoint x="740" y="460" />
            </Array>
          </mxGeometry>
        </mxCell>
      </root>
    </mxGraphModel>
  </diagram>
  <diagram id="oZjErFaqX1KUnRD69CAz" name="第 15 页">
    <mxGraphModel dx="1036" dy="606" grid="1" gridSize="10" guides="1" tooltips="1" connect="1" arrows="1" fold="1" page="1" pageScale="1" pageWidth="827" pageHeight="1169" math="0" shadow="0">
      <root>
        <mxCell id="0" />
        <mxCell id="1" parent="0" />
        <mxCell id="9FFmvMOEdHByJTtfiNEH-1" value="" style="rounded=0;whiteSpace=wrap;html=1;" parent="1" vertex="1">
          <mxGeometry x="270" y="180" width="220" height="60" as="geometry" />
        </mxCell>
        <mxCell id="9FFmvMOEdHByJTtfiNEH-2" value="回收集中的某个Region A" style="text;html=1;strokeColor=none;fillColor=none;align=center;verticalAlign=middle;whiteSpace=wrap;rounded=0;" parent="1" vertex="1">
          <mxGeometry x="100" y="195" width="140" height="30" as="geometry" />
        </mxCell>
        <mxCell id="9FFmvMOEdHByJTtfiNEH-3" value="forwarding指针" style="rounded=1;whiteSpace=wrap;html=1;" parent="1" vertex="1">
          <mxGeometry x="280" y="185" width="70" height="50" as="geometry" />
        </mxCell>
        <mxCell id="9FFmvMOEdHByJTtfiNEH-4" value="" style="rounded=0;whiteSpace=wrap;html=1;" parent="1" vertex="1">
          <mxGeometry x="270" y="330" width="220" height="60" as="geometry" />
        </mxCell>
        <mxCell id="9FFmvMOEdHByJTtfiNEH-5" value="空闲Region B" style="text;html=1;strokeColor=none;fillColor=none;align=center;verticalAlign=middle;whiteSpace=wrap;rounded=0;" parent="1" vertex="1">
          <mxGeometry x="160" y="345" width="80" height="30" as="geometry" />
        </mxCell>
        <mxCell id="9FFmvMOEdHByJTtfiNEH-6" value="a&#39;" style="rounded=1;whiteSpace=wrap;html=1;fillColor=#CCCCCC;" parent="1" vertex="1">
          <mxGeometry x="280" y="335" width="70" height="50" as="geometry" />
        </mxCell>
        <mxCell id="9FFmvMOEdHByJTtfiNEH-7" value="" style="rounded=0;whiteSpace=wrap;html=1;" parent="1" vertex="1">
          <mxGeometry x="270" y="470" width="220" height="60" as="geometry" />
        </mxCell>
        <mxCell id="9FFmvMOEdHByJTtfiNEH-8" value="不在回收集中的某个Region D" style="text;html=1;strokeColor=none;fillColor=none;align=center;verticalAlign=middle;whiteSpace=wrap;rounded=0;" parent="1" vertex="1">
          <mxGeometry x="80" y="485" width="170" height="30" as="geometry" />
        </mxCell>
        <mxCell id="9FFmvMOEdHByJTtfiNEH-27" style="edgeStyle=orthogonalEdgeStyle;rounded=0;orthogonalLoop=1;jettySize=auto;html=1;entryX=1;entryY=0.5;entryDx=0;entryDy=0;strokeColor=#FF0000;" parent="1" source="9FFmvMOEdHByJTtfiNEH-9" target="9FFmvMOEdHByJTtfiNEH-6" edge="1">
          <mxGeometry relative="1" as="geometry">
            <Array as="points">
              <mxPoint x="580" y="500" />
              <mxPoint x="580" y="360" />
            </Array>
          </mxGeometry>
        </mxCell>
        <mxCell id="9FFmvMOEdHByJTtfiNEH-9" value="d" style="rounded=1;whiteSpace=wrap;html=1;fillColor=#CCCCCC;" parent="1" vertex="1">
          <mxGeometry x="280" y="475" width="70" height="50" as="geometry" />
        </mxCell>
        <mxCell id="9FFmvMOEdHByJTtfiNEH-11" value="引用" style="text;html=1;strokeColor=none;fillColor=none;align=center;verticalAlign=middle;whiteSpace=wrap;rounded=0;" parent="1" vertex="1">
          <mxGeometry x="570" y="420" width="60" height="30" as="geometry" />
        </mxCell>
        <mxCell id="9FFmvMOEdHByJTtfiNEH-12" value="Region B的记忆集" style="text;html=1;strokeColor=none;fillColor=none;align=center;verticalAlign=middle;whiteSpace=wrap;rounded=0;" parent="1" vertex="1">
          <mxGeometry x="135" y="600" width="115" height="30" as="geometry" />
        </mxCell>
        <mxCell id="9FFmvMOEdHByJTtfiNEH-13" value="" style="edgeStyle=orthogonalEdgeStyle;rounded=0;orthogonalLoop=1;jettySize=auto;html=1;" parent="1" source="9FFmvMOEdHByJTtfiNEH-14" target="9FFmvMOEdHByJTtfiNEH-19" edge="1">
          <mxGeometry relative="1" as="geometry" />
        </mxCell>
        <mxCell id="9FFmvMOEdHByJTtfiNEH-14" value="Region A" style="rounded=0;whiteSpace=wrap;html=1;" parent="1" vertex="1">
          <mxGeometry x="270" y="585" width="120" height="60" as="geometry" />
        </mxCell>
        <mxCell id="9FFmvMOEdHByJTtfiNEH-15" value="" style="edgeStyle=orthogonalEdgeStyle;rounded=0;orthogonalLoop=1;jettySize=auto;html=1;" parent="1" source="9FFmvMOEdHByJTtfiNEH-16" target="9FFmvMOEdHByJTtfiNEH-21" edge="1">
          <mxGeometry relative="1" as="geometry" />
        </mxCell>
        <mxCell id="9FFmvMOEdHByJTtfiNEH-16" value="Region D" style="rounded=0;whiteSpace=wrap;html=1;" parent="1" vertex="1">
          <mxGeometry x="270" y="685" width="120" height="60" as="geometry" />
        </mxCell>
        <mxCell id="9FFmvMOEdHByJTtfiNEH-17" value="" style="edgeStyle=orthogonalEdgeStyle;rounded=0;orthogonalLoop=1;jettySize=auto;html=1;" parent="1" source="9FFmvMOEdHByJTtfiNEH-18" target="9FFmvMOEdHByJTtfiNEH-22" edge="1">
          <mxGeometry relative="1" as="geometry" />
        </mxCell>
        <mxCell id="9FFmvMOEdHByJTtfiNEH-18" value="Region B" style="rounded=0;whiteSpace=wrap;html=1;" parent="1" vertex="1">
          <mxGeometry x="270" y="785" width="120" height="60" as="geometry" />
        </mxCell>
        <mxCell id="9FFmvMOEdHByJTtfiNEH-19" value="..." style="rounded=0;whiteSpace=wrap;html=1;" parent="1" vertex="1">
          <mxGeometry x="490" y="585" width="70" height="60" as="geometry" />
        </mxCell>
        <mxCell id="9FFmvMOEdHByJTtfiNEH-21" value="..." style="rounded=0;whiteSpace=wrap;html=1;" parent="1" vertex="1">
          <mxGeometry x="490" y="685" width="70" height="60" as="geometry" />
        </mxCell>
        <mxCell id="9FFmvMOEdHByJTtfiNEH-22" value="..." style="rounded=0;whiteSpace=wrap;html=1;" parent="1" vertex="1">
          <mxGeometry x="490" y="785" width="70" height="60" as="geometry" />
        </mxCell>
        <mxCell id="9FFmvMOEdHByJTtfiNEH-23" value="把d所在卡页对应的卡片索引Region D的2048添加到a&#39;所在Region的记忆集中" style="text;html=1;strokeColor=none;fillColor=none;align=center;verticalAlign=middle;whiteSpace=wrap;rounded=0;" parent="1" vertex="1">
          <mxGeometry x="610" y="540" width="120" height="30" as="geometry" />
        </mxCell>
        <mxCell id="9FFmvMOEdHByJTtfiNEH-25" value="2048" style="rounded=0;whiteSpace=wrap;html=1;" parent="1" vertex="1">
          <mxGeometry x="560" y="685" width="70" height="60" as="geometry" />
        </mxCell>
        <mxCell id="9FFmvMOEdHByJTtfiNEH-26" value="" style="shape=flexArrow;endArrow=classic;html=1;rounded=0;edgeStyle=elbowEdgeStyle;fillColor=#FFFFFF;" parent="1" edge="1">
          <mxGeometry width="50" height="50" relative="1" as="geometry">
            <mxPoint x="510" y="340" as="sourcePoint" />
            <mxPoint x="640" y="710" as="targetPoint" />
            <Array as="points">
              <mxPoint x="740" y="460" />
            </Array>
          </mxGeometry>
        </mxCell>
      </root>
    </mxGraphModel>
  </diagram>
  <diagram id="JScrGbOEBOe5DFW0K1Zn" name="第 16 页">
    <mxGraphModel dx="1036" dy="606" grid="1" gridSize="10" guides="1" tooltips="1" connect="1" arrows="1" fold="1" page="1" pageScale="1" pageWidth="827" pageHeight="1169" math="0" shadow="0">
      <root>
        <mxCell id="0" />
        <mxCell id="1" parent="0" />
        <mxCell id="KTdcZjdMvO0z-McU_hVR-1" value="" style="rounded=0;whiteSpace=wrap;html=1;" parent="1" vertex="1">
          <mxGeometry x="270" y="330" width="220" height="60" as="geometry" />
        </mxCell>
        <mxCell id="KTdcZjdMvO0z-McU_hVR-2" value="新生代Region A" style="text;html=1;strokeColor=none;fillColor=none;align=center;verticalAlign=middle;whiteSpace=wrap;rounded=0;" parent="1" vertex="1">
          <mxGeometry x="140" y="345" width="100" height="30" as="geometry" />
        </mxCell>
        <mxCell id="KTdcZjdMvO0z-McU_hVR-3" value="a" style="rounded=1;whiteSpace=wrap;html=1;fillColor=#CCCCCC;" parent="1" vertex="1">
          <mxGeometry x="280" y="335" width="70" height="50" as="geometry" />
        </mxCell>
        <mxCell id="KTdcZjdMvO0z-McU_hVR-4" value="" style="rounded=0;whiteSpace=wrap;html=1;" parent="1" vertex="1">
          <mxGeometry x="270" y="470" width="220" height="60" as="geometry" />
        </mxCell>
        <mxCell id="KTdcZjdMvO0z-McU_hVR-5" value="老年代或新生代Region B" style="text;html=1;strokeColor=none;fillColor=none;align=center;verticalAlign=middle;whiteSpace=wrap;rounded=0;" parent="1" vertex="1">
          <mxGeometry x="80" y="485" width="170" height="30" as="geometry" />
        </mxCell>
        <mxCell id="KTdcZjdMvO0z-McU_hVR-6" style="edgeStyle=orthogonalEdgeStyle;rounded=0;orthogonalLoop=1;jettySize=auto;html=1;strokeColor=#FF0000;exitX=1;exitY=0.5;exitDx=0;exitDy=0;" parent="1" source="KTdcZjdMvO0z-McU_hVR-3" target="KTdcZjdMvO0z-McU_hVR-7" edge="1">
          <mxGeometry relative="1" as="geometry">
            <Array as="points">
              <mxPoint x="580" y="360" />
              <mxPoint x="580" y="500" />
            </Array>
          </mxGeometry>
        </mxCell>
        <mxCell id="KTdcZjdMvO0z-McU_hVR-7" value="b" style="rounded=1;whiteSpace=wrap;html=1;fillColor=#CCCCCC;" parent="1" vertex="1">
          <mxGeometry x="280" y="475" width="70" height="50" as="geometry" />
        </mxCell>
        <mxCell id="KTdcZjdMvO0z-McU_hVR-8" value="引用" style="text;html=1;strokeColor=none;fillColor=none;align=center;verticalAlign=middle;whiteSpace=wrap;rounded=0;" parent="1" vertex="1">
          <mxGeometry x="570" y="420" width="60" height="30" as="geometry" />
        </mxCell>
        <mxCell id="KTdcZjdMvO0z-McU_hVR-9" value="" style="ellipse;whiteSpace=wrap;html=1;" parent="1" vertex="1">
          <mxGeometry x="270" y="560" width="240" height="140" as="geometry" />
        </mxCell>
        <mxCell id="KTdcZjdMvO0z-McU_hVR-10" value="Region B的记忆集" style="text;html=1;strokeColor=none;fillColor=none;align=center;verticalAlign=middle;whiteSpace=wrap;rounded=0;" parent="1" vertex="1">
          <mxGeometry x="130" y="615" width="110" height="30" as="geometry" />
        </mxCell>
        <mxCell id="KTdcZjdMvO0z-McU_hVR-11" value="" style="shape=flexArrow;endArrow=classic;html=1;rounded=0;" parent="1" edge="1">
          <mxGeometry width="50" height="50" relative="1" as="geometry">
            <mxPoint x="570" y="520" as="sourcePoint" />
            <mxPoint x="540" y="630" as="targetPoint" />
          </mxGeometry>
        </mxCell>
        <mxCell id="KTdcZjdMvO0z-McU_hVR-12" value="" style="endArrow=none;html=1;rounded=0;" parent="1" edge="1">
          <mxGeometry width="50" height="50" relative="1" as="geometry">
            <mxPoint x="530" y="580" as="sourcePoint" />
            <mxPoint x="590" y="550" as="targetPoint" />
          </mxGeometry>
        </mxCell>
        <mxCell id="KTdcZjdMvO0z-McU_hVR-13" value="" style="endArrow=none;html=1;rounded=0;" parent="1" edge="1">
          <mxGeometry width="50" height="50" relative="1" as="geometry">
            <mxPoint x="580" y="590" as="sourcePoint" />
            <mxPoint x="530" y="540" as="targetPoint" />
          </mxGeometry>
        </mxCell>
        <mxCell id="KTdcZjdMvO0z-McU_hVR-14" value="无需记录" style="text;html=1;strokeColor=none;fillColor=none;align=center;verticalAlign=middle;whiteSpace=wrap;rounded=0;" parent="1" vertex="1">
          <mxGeometry x="600" y="530" width="60" height="30" as="geometry" />
        </mxCell>
        <mxCell id="KTdcZjdMvO0z-McU_hVR-15" value="" style="rounded=0;whiteSpace=wrap;html=1;" parent="1" vertex="1">
          <mxGeometry x="270" y="790" width="220" height="60" as="geometry" />
        </mxCell>
        <mxCell id="KTdcZjdMvO0z-McU_hVR-16" value="老年代Region C" style="text;html=1;strokeColor=none;fillColor=none;align=center;verticalAlign=middle;whiteSpace=wrap;rounded=0;" parent="1" vertex="1">
          <mxGeometry x="140" y="805" width="100" height="30" as="geometry" />
        </mxCell>
        <mxCell id="KTdcZjdMvO0z-McU_hVR-17" value="c" style="rounded=1;whiteSpace=wrap;html=1;fillColor=#CCCCCC;" parent="1" vertex="1">
          <mxGeometry x="280" y="795" width="70" height="50" as="geometry" />
        </mxCell>
        <mxCell id="KTdcZjdMvO0z-McU_hVR-18" value="" style="rounded=0;whiteSpace=wrap;html=1;" parent="1" vertex="1">
          <mxGeometry x="270" y="930" width="220" height="60" as="geometry" />
        </mxCell>
        <mxCell id="KTdcZjdMvO0z-McU_hVR-19" value="老年代或新生代Region D" style="text;html=1;strokeColor=none;fillColor=none;align=center;verticalAlign=middle;whiteSpace=wrap;rounded=0;" parent="1" vertex="1">
          <mxGeometry x="80" y="945" width="170" height="30" as="geometry" />
        </mxCell>
        <mxCell id="KTdcZjdMvO0z-McU_hVR-20" style="edgeStyle=orthogonalEdgeStyle;rounded=0;orthogonalLoop=1;jettySize=auto;html=1;strokeColor=#FF0000;exitX=1;exitY=0.5;exitDx=0;exitDy=0;" parent="1" source="KTdcZjdMvO0z-McU_hVR-17" target="KTdcZjdMvO0z-McU_hVR-21" edge="1">
          <mxGeometry relative="1" as="geometry">
            <Array as="points">
              <mxPoint x="580" y="820" />
              <mxPoint x="580" y="960" />
            </Array>
          </mxGeometry>
        </mxCell>
        <mxCell id="KTdcZjdMvO0z-McU_hVR-21" value="d" style="rounded=1;whiteSpace=wrap;html=1;fillColor=#CCCCCC;" parent="1" vertex="1">
          <mxGeometry x="280" y="935" width="70" height="50" as="geometry" />
        </mxCell>
        <mxCell id="KTdcZjdMvO0z-McU_hVR-22" value="引用" style="text;html=1;strokeColor=none;fillColor=none;align=center;verticalAlign=middle;whiteSpace=wrap;rounded=0;" parent="1" vertex="1">
          <mxGeometry x="570" y="880" width="60" height="30" as="geometry" />
        </mxCell>
        <mxCell id="KTdcZjdMvO0z-McU_hVR-23" value="" style="ellipse;whiteSpace=wrap;html=1;" parent="1" vertex="1">
          <mxGeometry x="270" y="1020" width="240" height="140" as="geometry" />
        </mxCell>
        <mxCell id="KTdcZjdMvO0z-McU_hVR-24" value="Region D的记忆集" style="text;html=1;strokeColor=none;fillColor=none;align=center;verticalAlign=middle;whiteSpace=wrap;rounded=0;" parent="1" vertex="1">
          <mxGeometry x="130" y="1075" width="110" height="30" as="geometry" />
        </mxCell>
        <mxCell id="KTdcZjdMvO0z-McU_hVR-25" value="" style="shape=flexArrow;endArrow=classic;html=1;rounded=0;" parent="1" target="KTdcZjdMvO0z-McU_hVR-23" edge="1">
          <mxGeometry width="50" height="50" relative="1" as="geometry">
            <mxPoint x="570" y="980" as="sourcePoint" />
            <mxPoint x="540" y="1090" as="targetPoint" />
          </mxGeometry>
        </mxCell>
        <mxCell id="KTdcZjdMvO0z-McU_hVR-28" value="需要记录" style="text;html=1;strokeColor=none;fillColor=none;align=center;verticalAlign=middle;whiteSpace=wrap;rounded=0;" parent="1" vertex="1">
          <mxGeometry x="560" y="1020" width="60" height="30" as="geometry" />
        </mxCell>
        <mxCell id="KTdcZjdMvO0z-McU_hVR-31" value="" style="edgeStyle=orthogonalEdgeStyle;rounded=0;orthogonalLoop=1;jettySize=auto;html=1;" parent="1" source="KTdcZjdMvO0z-McU_hVR-29" target="KTdcZjdMvO0z-McU_hVR-30" edge="1">
          <mxGeometry relative="1" as="geometry" />
        </mxCell>
        <mxCell id="KTdcZjdMvO0z-McU_hVR-29" value="Region C" style="rounded=0;whiteSpace=wrap;html=1;" parent="1" vertex="1">
          <mxGeometry x="300" y="1050" width="60" height="40" as="geometry" />
        </mxCell>
        <mxCell id="KTdcZjdMvO0z-McU_hVR-30" value="c所在的卡片索引" style="rounded=0;whiteSpace=wrap;html=1;" parent="1" vertex="1">
          <mxGeometry x="400" y="1050" width="50" height="40" as="geometry" />
        </mxCell>
        <mxCell id="KTdcZjdMvO0z-McU_hVR-32" value="" style="endArrow=none;dashed=1;html=1;rounded=0;" parent="1" edge="1">
          <mxGeometry width="50" height="50" relative="1" as="geometry">
            <mxPoint x="60" y="750" as="sourcePoint" />
            <mxPoint x="800" y="750" as="targetPoint" />
          </mxGeometry>
        </mxCell>
      </root>
    </mxGraphModel>
  </diagram>
  <diagram id="v2DWcJbTgcser3zY2RQ2" name="第 17 页">
    <mxGraphModel dx="592" dy="346" grid="1" gridSize="10" guides="1" tooltips="1" connect="1" arrows="1" fold="1" page="1" pageScale="1" pageWidth="827" pageHeight="1169" math="0" shadow="0">
      <root>
        <mxCell id="0" />
        <mxCell id="1" parent="0" />
        <mxCell id="uC7tfL4x_2PfFtFNCtD7-1" value="" style="rounded=0;whiteSpace=wrap;html=1;fillColor=#CCCCCC;" vertex="1" parent="1">
          <mxGeometry x="250" y="270" width="100" height="60" as="geometry" />
        </mxCell>
        <mxCell id="uC7tfL4x_2PfFtFNCtD7-2" value="Region" style="text;html=1;strokeColor=none;fillColor=none;align=center;verticalAlign=middle;whiteSpace=wrap;rounded=0;" vertex="1" parent="1">
          <mxGeometry x="180" y="285" width="60" height="30" as="geometry" />
        </mxCell>
        <mxCell id="uC7tfL4x_2PfFtFNCtD7-3" value="" style="rounded=0;whiteSpace=wrap;html=1;" vertex="1" parent="1">
          <mxGeometry x="350" y="270" width="100" height="60" as="geometry" />
        </mxCell>
        <mxCell id="uC7tfL4x_2PfFtFNCtD7-7" value="空闲" style="rounded=0;whiteSpace=wrap;html=1;" vertex="1" parent="1">
          <mxGeometry x="650" y="270" width="160" height="60" as="geometry" />
        </mxCell>
        <mxCell id="uC7tfL4x_2PfFtFNCtD7-8" value="" style="rounded=0;whiteSpace=wrap;html=1;fillColor=#CCCCCC;" vertex="1" parent="1">
          <mxGeometry x="350" y="270" width="30" height="60" as="geometry" />
        </mxCell>
        <mxCell id="uC7tfL4x_2PfFtFNCtD7-10" value="线程1&lt;br&gt;TLAB" style="text;html=1;strokeColor=none;fillColor=none;align=center;verticalAlign=middle;whiteSpace=wrap;rounded=0;" vertex="1" parent="1">
          <mxGeometry x="255" y="220" width="95" height="30" as="geometry" />
        </mxCell>
        <mxCell id="uC7tfL4x_2PfFtFNCtD7-11" value="" style="endArrow=classic;html=1;rounded=0;" edge="1" parent="1">
          <mxGeometry width="50" height="50" relative="1" as="geometry">
            <mxPoint x="350" y="400" as="sourcePoint" />
            <mxPoint x="350" y="340" as="targetPoint" />
          </mxGeometry>
        </mxCell>
        <mxCell id="uC7tfL4x_2PfFtFNCtD7-12" value="start" style="text;html=1;strokeColor=none;fillColor=none;align=center;verticalAlign=middle;whiteSpace=wrap;rounded=0;" vertex="1" parent="1">
          <mxGeometry x="320" y="400" width="60" height="30" as="geometry" />
        </mxCell>
        <mxCell id="uC7tfL4x_2PfFtFNCtD7-13" value="" style="endArrow=classic;html=1;rounded=0;" edge="1" parent="1">
          <mxGeometry width="50" height="50" relative="1" as="geometry">
            <mxPoint x="450" y="400" as="sourcePoint" />
            <mxPoint x="450" y="340" as="targetPoint" />
          </mxGeometry>
        </mxCell>
        <mxCell id="uC7tfL4x_2PfFtFNCtD7-14" value="end" style="text;html=1;strokeColor=none;fillColor=none;align=center;verticalAlign=middle;whiteSpace=wrap;rounded=0;" vertex="1" parent="1">
          <mxGeometry x="420" y="400" width="60" height="30" as="geometry" />
        </mxCell>
        <mxCell id="uC7tfL4x_2PfFtFNCtD7-15" value="" style="rounded=0;whiteSpace=wrap;html=1;fillColor=#CCCCCC;" vertex="1" parent="1">
          <mxGeometry x="450" y="270" width="100" height="60" as="geometry" />
        </mxCell>
        <mxCell id="uC7tfL4x_2PfFtFNCtD7-16" value="" style="rounded=0;whiteSpace=wrap;html=1;" vertex="1" parent="1">
          <mxGeometry x="550" y="270" width="100" height="60" as="geometry" />
        </mxCell>
        <mxCell id="uC7tfL4x_2PfFtFNCtD7-9" value="" style="rounded=0;whiteSpace=wrap;html=1;fillColor=#CCCCCC;" vertex="1" parent="1">
          <mxGeometry x="550" y="270" width="60" height="60" as="geometry" />
        </mxCell>
        <mxCell id="uC7tfL4x_2PfFtFNCtD7-17" value="" style="endArrow=classic;html=1;rounded=0;" edge="1" parent="1">
          <mxGeometry width="50" height="50" relative="1" as="geometry">
            <mxPoint x="380" y="400" as="sourcePoint" />
            <mxPoint x="380" y="340" as="targetPoint" />
          </mxGeometry>
        </mxCell>
        <mxCell id="uC7tfL4x_2PfFtFNCtD7-18" value="top" style="text;html=1;strokeColor=none;fillColor=none;align=center;verticalAlign=middle;whiteSpace=wrap;rounded=0;" vertex="1" parent="1">
          <mxGeometry x="350" y="400" width="60" height="30" as="geometry" />
        </mxCell>
        <mxCell id="uC7tfL4x_2PfFtFNCtD7-19" value="" style="endArrow=classic;html=1;rounded=0;" edge="1" parent="1">
          <mxGeometry width="50" height="50" relative="1" as="geometry">
            <mxPoint x="550" y="400" as="sourcePoint" />
            <mxPoint x="550" y="340" as="targetPoint" />
          </mxGeometry>
        </mxCell>
        <mxCell id="uC7tfL4x_2PfFtFNCtD7-20" value="start" style="text;html=1;strokeColor=none;fillColor=none;align=center;verticalAlign=middle;whiteSpace=wrap;rounded=0;" vertex="1" parent="1">
          <mxGeometry x="520" y="400" width="60" height="30" as="geometry" />
        </mxCell>
        <mxCell id="uC7tfL4x_2PfFtFNCtD7-21" value="" style="endArrow=classic;html=1;rounded=0;" edge="1" parent="1">
          <mxGeometry width="50" height="50" relative="1" as="geometry">
            <mxPoint x="650" y="400" as="sourcePoint" />
            <mxPoint x="650" y="340" as="targetPoint" />
          </mxGeometry>
        </mxCell>
        <mxCell id="uC7tfL4x_2PfFtFNCtD7-22" value="end" style="text;html=1;strokeColor=none;fillColor=none;align=center;verticalAlign=middle;whiteSpace=wrap;rounded=0;" vertex="1" parent="1">
          <mxGeometry x="620" y="400" width="60" height="30" as="geometry" />
        </mxCell>
        <mxCell id="uC7tfL4x_2PfFtFNCtD7-23" value="" style="endArrow=classic;html=1;rounded=0;" edge="1" parent="1">
          <mxGeometry width="50" height="50" relative="1" as="geometry">
            <mxPoint x="609.71" y="400" as="sourcePoint" />
            <mxPoint x="609.71" y="340" as="targetPoint" />
          </mxGeometry>
        </mxCell>
        <mxCell id="uC7tfL4x_2PfFtFNCtD7-24" value="top" style="text;html=1;strokeColor=none;fillColor=none;align=center;verticalAlign=middle;whiteSpace=wrap;rounded=0;" vertex="1" parent="1">
          <mxGeometry x="580" y="400" width="60" height="30" as="geometry" />
        </mxCell>
        <mxCell id="uC7tfL4x_2PfFtFNCtD7-25" value="线程2&lt;br&gt;TLAB" style="text;html=1;strokeColor=none;fillColor=none;align=center;verticalAlign=middle;whiteSpace=wrap;rounded=0;" vertex="1" parent="1">
          <mxGeometry x="350" y="220" width="95" height="30" as="geometry" />
        </mxCell>
        <mxCell id="uC7tfL4x_2PfFtFNCtD7-26" value="线程1&lt;br&gt;TLAB" style="text;html=1;strokeColor=none;fillColor=none;align=center;verticalAlign=middle;whiteSpace=wrap;rounded=0;" vertex="1" parent="1">
          <mxGeometry x="450" y="220" width="95" height="30" as="geometry" />
        </mxCell>
        <mxCell id="uC7tfL4x_2PfFtFNCtD7-27" value="线程3&lt;br&gt;TLAB" style="text;html=1;strokeColor=none;fillColor=none;align=center;verticalAlign=middle;whiteSpace=wrap;rounded=0;" vertex="1" parent="1">
          <mxGeometry x="550" y="220" width="95" height="30" as="geometry" />
        </mxCell>
      </root>
    </mxGraphModel>
  </diagram>
</mxfile>
